<svg className="hello" width="544" height="59" viewBox="0 0 544 59" fill="none" xmlns="http://www.w3.org/2000/svg">
<path d="M8.208 43.392C6.736 43.392 5.376 43.184 4.128 42.768C2.88 42.352 1.872 41.632 1.104 40.608C0.368003 39.616 3.48128e-06 38.24 3.48128e-06 36.48C3.48128e-06 34.88 0.432003 33.344 1.296 31.872C2.16 30.4 3.296 29.056 4.704 27.84C6.112 26.592 7.616 25.504 9.216 24.576C9.6 24.384 9.856 24.288 9.984 24.288C10.112 24.288 10.176 24.336 10.176 24.432C10.176 24.56 10.016 24.736 9.696 24.96C6.688 26.688 4.512 28.56 3.168 30.576C1.856 32.56 1.2 34.432 1.2 36.192C1.2 38.048 1.872 39.616 3.216 40.896C4.56 42.176 6.352 42.816 8.592 42.816C9.808 42.816 11.088 42.608 12.432 42.192C13.36 41.904 14.192 41.504 14.928 40.992C15.664 40.512 16.368 39.92 17.04 39.216C16.144 38 15.456 36.56 14.976 34.896C14.528 33.232 14.304 31.488 14.304 29.664C14.304 28.192 14.464 26.704 14.784 25.2C15.104 23.696 15.568 22.256 16.176 20.88C15.728 19.6 15.504 18.256 15.504 16.848C15.504 14.704 16.032 12.56 17.088 10.416C18.176 8.24 19.872 6.464 22.176 5.088C23.968 4 25.824 3.264 27.744 2.88C29.696 2.496 31.648 2.304 33.6 2.304C35.232 2.304 36.848 2.4 38.448 2.592C40.048 2.752 41.584 2.912 43.056 3.072C44.048 2.08 45.04 1.328 46.032 0.815999C47.024 0.272 48.032 9.53674e-07 49.056 9.53674e-07C49.792 9.53674e-07 50.336 0.112 50.688 0.335999C51.04 0.56 51.216 0.832001 51.216 1.152C51.216 1.568 50.976 2 50.496 2.448C50.016 2.896 49.392 3.232 48.624 3.456C47.92 3.648 47.168 3.76 46.368 3.792C45.6 3.824 44.896 3.824 44.256 3.792C43.328 4.88 42.4 6.128 41.472 7.536C40.576 8.912 39.728 10.32 38.928 11.76C40.624 12.336 41.888 13.184 42.72 14.304C43.552 15.424 43.968 16.64 43.968 17.952C43.968 19.328 43.488 20.72 42.528 22.128C41.568 23.504 40.128 24.704 38.208 25.728C36.32 26.72 33.936 27.344 31.056 27.6C29.584 30.128 27.92 32.48 26.064 34.656C24.208 36.8 22.128 38.592 19.824 40.032C20.72 40.64 21.712 41.12 22.8 41.472C23.92 41.856 25.152 42.048 26.496 42.048C27.936 42.048 29.296 41.872 30.576 41.52C31.856 41.2 32.944 40.768 33.84 40.224C34.736 39.68 35.312 39.104 35.568 38.496C35.664 38.336 35.76 38.256 35.856 38.256C36.048 38.256 36.096 38.416 36 38.736C35.712 39.504 35.088 40.192 34.128 40.8C33.168 41.44 32.016 41.936 30.672 42.288C29.328 42.64 27.936 42.816 26.496 42.816C24.992 42.816 23.616 42.592 22.368 42.144C21.152 41.728 20.064 41.168 19.104 40.464C18.016 41.072 16.88 41.6 15.696 42.048C14.544 42.496 13.312 42.832 12 43.056C11.392 43.152 10.768 43.232 10.128 43.296C9.488 43.36 8.848 43.392 8.208 43.392ZM44.784 3.216C46.832 3.312 48.304 3.12 49.2 2.64C50.128 2.128 50.592 1.664 50.592 1.248C50.592 0.768 50.208 0.528 49.44 0.528C49.184 0.528 48.784 0.608 48.24 0.768C47.664 0.959999 47.088 1.264 46.512 1.68C45.936 2.096 45.36 2.608 44.784 3.216ZM17.232 19.968C18.288 18.304 19.616 16.816 21.216 15.504C22.848 14.192 24.8 13.152 27.072 12.384C29.344 11.584 31.984 11.184 34.992 11.184C35.312 11.184 35.632 11.184 35.952 11.184C36.272 11.184 36.592 11.2 36.912 11.232C37.84 9.728 38.768 8.336 39.696 7.056C40.656 5.744 41.6 4.592 42.528 3.6C41.6 3.504 40.656 3.424 39.696 3.36C38.736 3.296 37.776 3.264 36.816 3.264C34.64 3.264 32.432 3.504 30.192 3.984C27.984 4.432 25.792 5.312 23.616 6.624C21.376 7.936 19.68 9.584 18.528 11.568C17.408 13.52 16.848 15.456 16.848 17.376C16.848 18.24 16.976 19.104 17.232 19.968ZM27.504 27.024C29.072 24.528 30.592 21.984 32.064 19.392C33.568 16.768 35.04 14.288 36.48 11.952C36.192 11.92 35.904 11.904 35.616 11.904C35.36 11.904 35.104 11.904 34.848 11.904C31.936 11.904 29.36 12.32 27.12 13.152C24.88 13.952 22.96 15.024 21.36 16.368C19.792 17.712 18.512 19.216 17.52 20.88C18.192 22.448 19.36 23.808 21.024 24.96C22.688 26.08 24.848 26.768 27.504 27.024ZM31.44 26.976C34.032 26.656 36.144 26.048 37.776 25.152C39.44 24.224 40.656 23.152 41.424 21.936C42.224 20.688 42.624 19.44 42.624 18.192C42.624 16.976 42.272 15.856 41.568 14.832C40.864 13.776 39.856 12.976 38.544 12.432C37.264 14.8 36.08 17.232 34.992 19.728C33.936 22.192 32.752 24.608 31.44 26.976ZM18.288 38.688C19.888 37.28 21.424 35.616 22.896 33.696C24.368 31.776 25.792 29.728 27.168 27.552C24.672 27.296 22.576 26.64 20.88 25.584C19.184 24.496 17.904 23.2 17.04 21.696C16.368 22.976 15.856 24.304 15.504 25.68C15.184 27.024 15.024 28.352 15.024 29.664C15.024 31.392 15.296 33.04 15.84 34.608C16.384 36.176 17.2 37.536 18.288 38.688ZM45.8963 39.936C44.5523 39.936 43.8803 39.184 43.8803 37.68C43.8803 37.104 43.9923 36.416 44.2163 35.616C44.4403 34.816 44.7923 33.936 45.2723 32.976C45.5283 32.4 45.8803 31.712 46.3283 30.912C46.7763 30.08 47.1763 29.264 47.5283 28.464C47.9123 27.664 48.1043 27.024 48.1043 26.544C48.1043 26.064 47.8483 25.824 47.3363 25.824C47.1123 25.824 46.8243 25.888 46.4723 26.016C46.1203 26.112 45.6403 26.24 45.0323 26.4C44.7763 27.04 44.3603 27.936 43.7843 29.088C43.2403 30.208 42.6323 31.36 41.9603 32.544C41.2883 33.728 40.6483 34.752 40.0403 35.616C40.0403 35.616 40.0243 35.632 39.9923 35.664C39.9923 35.664 39.9603 35.664 39.8963 35.664C39.8323 35.664 39.7363 35.648 39.6083 35.616C39.5123 35.552 39.4803 35.504 39.5123 35.472C40.0243 34.736 40.5523 33.888 41.0963 32.928C41.6403 31.936 42.1523 30.96 42.6323 30C43.1443 29.04 43.5603 28.224 43.8803 27.552C44.2323 26.848 44.4243 26.432 44.4563 26.304C43.9763 26.144 43.5923 25.776 43.3043 25.2C43.0483 24.592 42.9203 23.984 42.9203 23.376C42.9203 22.832 43.0483 22.368 43.3043 21.984C43.5603 21.6 43.9443 21.408 44.4563 21.408C44.8403 21.408 45.0963 21.616 45.2243 22.032C45.3843 22.416 45.4643 22.88 45.4643 23.424C45.4643 24.128 45.3843 24.832 45.2243 25.536C45.2243 25.536 45.4003 25.504 45.7523 25.44C46.1043 25.376 46.5203 25.328 47.0003 25.296C47.4803 25.232 47.8963 25.2 48.2483 25.2C49.3043 25.2 49.8323 25.712 49.8323 26.736C49.8323 27.376 49.6563 28.208 49.3043 29.232C48.9523 30.224 48.5043 31.376 47.9603 32.688C46.8723 35.28 46.3283 37.104 46.3283 38.16C46.3283 38.8 46.5363 39.12 46.9523 39.12C47.4643 39.12 48.1843 38.704 49.1123 37.872C50.0403 37.04 50.8883 36 51.6563 34.752C52.4563 33.472 53.4323 31.76 54.5843 29.616C54.6163 29.552 54.6643 29.52 54.7283 29.52C54.8243 29.52 54.9043 29.568 54.9683 29.664C55.0643 29.728 55.0963 29.792 55.0643 29.856C53.3043 33.184 51.7683 35.696 50.4563 37.392C49.1443 39.088 47.6243 39.936 45.8963 39.936ZM54.879 39.936C53.791 39.936 53.039 39.632 52.623 39.024C52.239 38.416 52.047 37.664 52.047 36.768C52.047 35.84 52.207 34.864 52.527 33.84C52.847 32.816 53.151 32 53.439 31.392C54.463 29.248 55.887 27.616 57.711 26.496C59.567 25.344 61.471 24.768 63.423 24.768C63.679 24.768 63.935 24.768 64.191 24.768C64.479 24.768 64.751 24.8 65.007 24.864C65.647 24.96 65.967 25.04 65.967 25.104C65.967 25.168 65.727 25.232 65.247 25.296C64.799 25.36 64.463 25.392 64.239 25.392C62.671 25.392 61.263 25.808 60.015 26.64C58.799 27.472 57.759 28.528 56.895 29.808C56.031 31.088 55.359 32.4 54.879 33.744C54.431 35.056 54.207 36.192 54.207 37.152C54.207 37.76 54.303 38.256 54.495 38.64C54.719 39.024 55.039 39.216 55.455 39.216C55.903 39.216 56.415 38.912 56.991 38.304C57.567 37.696 58.127 36.96 58.671 36.096C59.215 35.2 59.711 34.336 60.159 33.504C60.607 32.64 60.943 31.984 61.167 31.536L63.231 27.216C63.775 27.088 64.319 26.944 64.863 26.784C65.439 26.592 65.983 26.384 66.495 26.16C65.951 27.088 65.423 28.064 64.911 29.088C64.431 30.112 63.935 31.12 63.423 32.112C63.039 32.848 62.655 33.712 62.271 34.704C61.919 35.696 61.743 36.592 61.743 37.392V37.584C61.743 37.84 61.775 38.128 61.839 38.448C61.903 38.736 62.079 38.88 62.367 38.88C62.719 38.88 63.167 38.672 63.711 38.256C64.255 37.808 64.639 37.472 64.863 37.248C65.887 36.224 66.767 35.088 67.503 33.84C68.271 32.592 68.975 31.328 69.615 30.048C69.679 29.984 69.727 29.952 69.759 29.952C70.015 29.952 70.111 30.08 70.047 30.336C70.047 30.336 69.967 30.48 69.807 30.768C69.679 31.056 69.599 31.216 69.567 31.248C68.959 32.368 68.351 33.44 67.743 34.464C67.135 35.488 66.415 36.464 65.583 37.392C65.071 37.904 64.447 38.448 63.711 39.024C62.975 39.6 62.239 39.888 61.503 39.888C60.799 39.888 60.303 39.616 60.015 39.072C59.727 38.496 59.583 37.856 59.583 37.152C59.583 36.704 59.615 36.272 59.679 35.856C59.775 35.408 59.871 35.024 59.967 34.704C59.743 35.28 59.343 35.984 58.767 36.816C58.223 37.648 57.599 38.384 56.895 39.024C56.223 39.632 55.551 39.936 54.879 39.936ZM71.6494 58.512C71.4254 58.512 71.2174 58.464 71.0254 58.368C70.2574 58.016 69.8734 57.024 69.8734 55.392C69.8734 53.984 70.1134 52.24 70.5934 50.16C71.0734 48.08 71.6974 45.792 72.4654 43.296C73.2334 40.8 74.0174 38.24 74.8174 35.616C74.6254 36.16 74.2894 36.784 73.8094 37.488C73.3614 38.16 72.8174 38.736 72.1774 39.216C71.5374 39.696 70.8494 39.936 70.1134 39.936C69.0254 39.936 68.2734 39.632 67.8574 39.024C67.4734 38.384 67.2814 37.632 67.2814 36.768C67.2814 35.84 67.4414 34.864 67.7614 33.84C68.0814 32.816 68.3854 32 68.6734 31.392C69.6974 29.248 71.1214 27.616 72.9454 26.496C74.8014 25.344 76.7054 24.768 78.6574 24.768C78.9134 24.768 79.1694 24.768 79.4254 24.768C79.7134 24.768 79.9854 24.8 80.2414 24.864C80.8814 24.96 81.2014 25.04 81.2014 25.104C81.2014 25.168 80.9614 25.232 80.4814 25.296C80.0334 25.36 79.6974 25.392 79.4734 25.392C77.9054 25.392 76.4974 25.808 75.2494 26.64C74.0334 27.472 72.9934 28.528 72.1294 29.808C71.2654 31.088 70.5934 32.4 70.1134 33.744C69.6654 35.056 69.4414 36.192 69.4414 37.152C69.4414 37.76 69.5374 38.256 69.7294 38.64C69.9534 39.024 70.2734 39.216 70.6894 39.216C71.1374 39.216 71.6494 38.912 72.2254 38.304C72.8014 37.696 73.3614 36.96 73.9054 36.096C74.4494 35.2 74.9454 34.336 75.3934 33.504C75.8414 32.64 76.1774 31.984 76.4014 31.536L78.4654 27.216C79.0094 27.088 79.5534 26.944 80.0974 26.784C80.6734 26.592 81.2174 26.384 81.7294 26.16C80.7374 27.856 79.7934 29.648 78.8974 31.536C78.0014 33.392 77.1854 35.232 76.4494 37.056C76.4814 37.248 76.5134 37.584 76.5454 38.064C76.5774 38.512 76.6094 38.816 76.6414 38.976C76.8334 39.04 77.0094 39.072 77.1694 39.072C77.8734 39.072 78.6254 38.704 79.4254 37.968C80.2574 37.2 81.1054 36.208 81.9694 34.992C82.8334 33.776 83.6494 32.464 84.4174 31.056C84.4814 30.96 84.5454 30.912 84.6094 30.912C84.6734 30.912 84.7214 30.96 84.7534 31.056C84.7854 31.152 84.7694 31.264 84.7054 31.392C84.4494 31.904 84.0654 32.624 83.5534 33.552C83.0414 34.448 82.4334 35.376 81.7294 36.336C81.0574 37.264 80.3374 38.064 79.5694 38.736C78.8334 39.376 78.0974 39.696 77.3614 39.696C77.2014 39.696 76.9934 39.664 76.7374 39.6C76.9294 40.464 77.0254 41.488 77.0254 42.672C77.0254 43.92 76.9294 45.264 76.7374 46.704C76.5454 48.144 76.2734 49.552 75.9214 50.928C75.6014 52.336 75.2174 53.6 74.7694 54.72C74.3214 55.872 73.8254 56.784 73.2814 57.456C72.7694 58.16 72.2254 58.512 71.6494 58.512ZM72.0334 57.6C72.1934 57.6 72.3854 57.456 72.6094 57.168C72.8654 56.88 73.1854 56.384 73.5694 55.68C74.1454 54.592 74.6414 53.28 75.0574 51.744C75.4734 50.208 75.7774 48.64 75.9694 47.04C76.1934 45.44 76.3054 43.984 76.3054 42.672C76.3054 41.328 76.1774 40.24 75.9214 39.408C75.0894 41.552 74.4334 43.312 73.9534 44.688C73.4734 46.064 73.0574 47.456 72.7054 48.864C72.6734 48.992 72.5934 49.328 72.4654 49.872C72.3694 50.448 72.2574 51.12 72.1294 51.888C72.0014 52.656 71.8894 53.44 71.7934 54.24C71.6974 55.04 71.6494 55.728 71.6494 56.304C71.6494 57.168 71.7774 57.6 72.0334 57.6ZM90.9146 10.032C91.7466 10.032 92.1626 10.528 92.1626 11.52C92.1626 11.84 92.0346 12.352 91.7786 13.056C91.5226 13.76 91.0746 14.4 90.4346 14.976C90.0826 15.296 89.6986 15.568 89.2826 15.792C88.8986 15.984 88.5946 16.08 88.3706 16.08C88.1786 16.08 88.0826 16 88.0826 15.84C88.0826 15.68 88.2746 15.504 88.6586 15.312C89.0106 15.152 89.4266 14.832 89.9066 14.352C90.3866 13.84 90.6746 13.28 90.7706 12.672C90.6106 12.832 90.4186 12.912 90.1946 12.912C89.9066 12.912 89.6826 12.8 89.5226 12.576C89.3946 12.352 89.3306 12.096 89.3306 11.808C89.3306 11.392 89.4586 10.992 89.7146 10.608C90.0026 10.224 90.4026 10.032 90.9146 10.032ZM97.7531 40.176C95.7051 40.176 94.2971 39.808 93.5291 39.072C92.7931 38.336 92.4251 37.52 92.4251 36.624C92.4251 35.792 92.6331 35.04 93.0491 34.368C93.4651 33.664 93.8811 33.248 94.2971 33.12C94.5851 32.608 94.8891 32.048 95.2091 31.44C95.5611 30.832 95.8811 30.24 96.1691 29.664C96.7451 28.512 97.3371 27.424 97.9451 26.4C98.5531 25.344 99.2091 24.496 99.9131 23.856C100.649 23.216 101.417 22.896 102.217 22.896C102.601 22.896 103.001 22.976 103.417 23.136C103.833 23.328 104.041 23.52 104.041 23.712C104.041 23.84 103.977 23.936 103.849 24C103.721 24.064 103.577 24.08 103.417 24.048C102.841 23.888 102.313 24.048 101.833 24.528C101.353 25.008 101.113 25.664 101.113 26.496C101.113 26.624 101.113 26.768 101.113 26.928C101.145 27.056 101.177 27.2 101.209 27.36C101.401 28.128 101.593 29.008 101.785 30C102.009 30.992 102.121 32 102.121 33.024C102.121 33.408 102.105 33.792 102.073 34.176C102.041 34.56 101.961 34.928 101.833 35.28C101.417 36.464 100.841 37.408 100.105 38.112C99.4011 38.784 98.5371 39.28 97.5131 39.6C98.2811 39.632 99.0811 39.568 99.9131 39.408C100.777 39.216 101.513 38.944 102.121 38.592C103.177 37.984 104.105 37.152 104.905 36.096C105.737 35.04 106.473 33.936 107.113 32.784C107.753 31.6 108.329 30.528 108.841 29.568C108.873 29.44 108.969 29.376 109.129 29.376C109.225 29.376 109.305 29.424 109.369 29.52C109.433 29.584 109.433 29.664 109.369 29.76C108.729 30.944 108.073 32.144 107.401 33.36C106.729 34.544 105.977 35.648 105.145 36.672C104.313 37.664 103.321 38.48 102.169 39.12C100.921 39.824 99.4491 40.176 97.7531 40.176ZM95.7851 39.36C96.4251 39.36 97.0811 39.152 97.7531 38.736C98.4251 38.32 98.9051 37.712 99.1931 36.912C99.5451 35.92 99.7531 34.816 99.8171 33.6C99.9131 32.352 99.9611 31.184 99.9611 30.096C99.9611 29.008 99.9771 28.176 100.009 27.6C100.073 26.704 100.313 25.872 100.729 25.104C101.145 24.304 101.849 23.824 102.841 23.664C102.617 23.536 102.393 23.472 102.169 23.472C101.625 23.472 101.065 23.712 100.489 24.192C99.9131 24.672 99.4811 25.104 99.1931 25.488C98.7451 26.096 98.3131 26.816 97.8971 27.648C97.4811 28.48 97.0171 29.36 96.5051 30.288L95.0651 32.88C95.1611 32.848 95.3051 32.832 95.4971 32.832C96.0091 32.832 96.3291 32.976 96.4571 33.264C96.6171 33.552 96.6651 33.76 96.6011 33.888C96.5051 33.856 96.4091 33.84 96.3131 33.84C96.2491 33.808 96.1851 33.792 96.1211 33.792C95.5771 33.792 95.0971 34.016 94.6811 34.464C94.2971 34.912 94.0251 35.408 93.8651 35.952C93.8011 36.176 93.7531 36.4 93.7211 36.624C93.6891 36.816 93.6731 36.992 93.6731 37.152C93.6731 37.92 93.8811 38.48 94.2971 38.832C94.7131 39.184 95.2091 39.36 95.7851 39.36ZM128.685 52.32C127.053 52.32 125.485 52.048 123.981 51.504C122.477 50.992 121.181 50.208 120.093 49.152C119.005 48.128 118.221 46.88 117.741 45.408C116.621 45.28 115.581 45.024 114.621 44.64C113.661 44.256 112.893 43.696 112.317 42.96C111.709 42.224 111.405 41.28 111.405 40.128C111.405 39.936 111.421 39.744 111.453 39.552C111.453 39.328 111.469 39.104 111.501 38.88C111.501 38.72 111.613 38.64 111.837 38.64C112.093 38.64 112.221 38.72 112.221 38.88L112.173 39.696C112.173 41.168 112.701 42.304 113.757 43.104C114.813 43.904 116.077 44.384 117.549 44.544C117.389 43.84 117.309 43.152 117.309 42.48C117.309 41.552 117.469 40.928 117.789 40.608C118.141 40.32 118.461 40.176 118.749 40.176C119.133 40.176 119.325 40.272 119.325 40.464C119.325 40.592 119.197 40.704 118.941 40.8C118.589 40.928 118.349 41.152 118.221 41.472C118.093 41.792 118.029 42.128 118.029 42.48C118.029 42.864 118.061 43.232 118.125 43.584C118.189 43.936 118.253 44.288 118.317 44.64C119.885 44.736 121.389 44.56 122.829 44.112C123.885 43.76 124.845 43.28 125.709 42.672C126.573 42.064 127.357 41.36 128.061 40.56C126.429 39.696 124.957 38.656 123.645 37.44C122.333 36.192 121.293 34.768 120.525 33.168C119.757 31.568 119.373 29.84 119.373 27.984C119.373 27.44 119.405 26.912 119.469 26.4C119.565 25.856 119.677 25.36 119.805 24.912C118.621 23.504 118.029 21.728 118.029 19.584C118.029 17.984 118.381 16.304 119.085 14.544C119.789 12.784 120.845 11.072 122.253 9.408C123.693 7.744 125.453 6.24 127.533 4.896C129.645 3.552 132.109 2.464 134.925 1.632C137.741 0.799999 140.893 0.351999 144.381 0.288C147.293 0.224001 150.077 0.592001 152.733 1.392C155.389 2.16 157.741 3.312 159.789 4.848C161.837 6.384 163.421 8.288 164.541 10.56C165.661 12.832 166.141 15.44 165.981 18.384C165.789 21.552 165.005 24.544 163.629 27.36C162.253 30.144 160.429 32.64 158.157 34.848C155.917 37.056 153.405 38.864 150.621 40.272C147.837 41.712 144.941 42.624 141.933 43.008C141.197 45.12 140.125 46.864 138.717 48.24C137.309 49.616 135.725 50.64 133.965 51.312C132.237 51.984 130.477 52.32 128.685 52.32ZM142.173 42.144C144.797 41.664 147.309 40.688 149.709 39.216C152.141 37.744 154.301 35.936 156.189 33.792C158.109 31.616 159.613 29.232 160.701 26.64C161.821 24.016 162.381 21.328 162.381 18.576C162.381 15.632 161.901 13.072 160.941 10.896C160.013 8.72 158.733 6.928 157.101 5.52C155.469 4.08 153.581 3.008 151.437 2.304C149.325 1.568 147.085 1.2 144.717 1.2C141.581 1.2 138.733 1.6 136.173 2.4C133.645 3.2 131.405 4.288 129.453 5.664C127.501 7.008 125.853 8.512 124.509 10.176C123.197 11.84 122.205 13.536 121.533 15.264C120.861 16.96 120.525 18.576 120.525 20.112C120.525 20.976 120.653 21.84 120.909 22.704C121.709 21.552 122.733 20.688 123.981 20.112C125.261 19.504 126.637 19.2 128.109 19.2C129.165 19.2 130.221 19.344 131.277 19.632C132.365 19.92 133.421 20.384 134.445 21.024L134.589 20.016C134.589 19.728 134.669 19.584 134.829 19.584C134.957 19.584 135.021 19.712 135.021 19.968C135.021 20.416 134.973 20.864 134.877 21.312C135.837 21.92 136.749 22.688 137.613 23.616C138.445 22.016 139.325 20.432 140.253 18.864C141.181 17.264 142.189 15.712 143.277 14.208C145.293 11.456 147.245 9.344 149.133 7.872C151.021 6.4 152.797 5.664 154.461 5.664C154.973 5.664 155.437 5.728 155.853 5.856C155.949 5.888 155.997 5.968 155.997 6.096C155.997 6.288 155.901 6.368 155.709 6.336C155.581 6.272 155.437 6.24 155.277 6.24C155.149 6.24 155.005 6.24 154.845 6.24C153.725 6.24 152.541 6.768 151.293 7.824C150.045 8.848 148.749 10.288 147.405 12.144C146.093 13.968 144.765 16.08 143.421 18.48C142.109 20.88 140.829 23.456 139.581 26.208C140.605 27.904 141.405 29.728 141.981 31.68C142.557 33.632 142.845 35.504 142.845 37.296C142.845 38.096 142.797 38.896 142.701 39.696C142.605 40.528 142.429 41.344 142.173 42.144ZM127.245 26.928C128.621 26.928 129.997 26.512 131.373 25.68C132.749 24.848 133.693 23.6 134.205 21.936C132.541 20.976 130.765 20.496 128.877 20.496C127.405 20.496 126.029 20.832 124.749 21.504C123.469 22.176 122.477 23.168 121.773 24.48C122.317 25.216 123.037 25.808 123.933 26.256C124.861 26.704 125.965 26.928 127.245 26.928ZM128.637 39.888C129.181 39.216 129.677 38.512 130.125 37.776C130.605 37.04 131.053 36.304 131.469 35.568C132.525 33.68 133.517 31.792 134.445 29.904C135.373 28.016 136.301 26.144 137.229 24.288C136.845 23.84 136.429 23.456 135.981 23.136C135.565 22.784 135.133 22.464 134.685 22.176C134.109 24.032 133.085 25.44 131.613 26.4C130.173 27.328 128.653 27.792 127.053 27.792C125.805 27.792 124.685 27.648 123.693 27.36C122.733 27.072 121.885 26.672 121.149 26.16C121.021 26.672 120.925 27.248 120.861 27.888C120.733 29.648 120.989 31.28 121.629 32.784C122.301 34.288 123.245 35.648 124.461 36.864C125.709 38.048 127.101 39.056 128.637 39.888ZM138.765 42.48C139.213 42.48 139.661 42.448 140.109 42.384C140.557 42.352 140.989 42.32 141.405 42.288C141.629 41.552 141.805 40.768 141.933 39.936C142.061 39.104 142.125 38.224 142.125 37.296C142.125 35.664 141.869 33.952 141.357 32.16C140.845 30.336 140.125 28.624 139.197 27.024L138.573 28.464C138.029 29.744 137.405 31.136 136.701 32.64C136.029 34.112 135.229 35.568 134.301 37.008C133.405 38.448 132.317 39.76 131.037 40.944C133.565 41.968 136.141 42.48 138.765 42.48ZM128.829 51.216C130.493 51.216 132.125 50.928 133.725 50.352C135.325 49.776 136.781 48.88 138.093 47.664C139.405 46.48 140.413 44.96 141.117 43.104C140.221 43.2 139.293 43.248 138.333 43.248C137.021 43.184 135.677 43.008 134.301 42.72C132.957 42.464 131.629 42.08 130.317 41.568C129.261 42.464 128.061 43.232 126.717 43.872C125.405 44.512 123.901 44.96 122.205 45.216C121.629 45.312 121.037 45.376 120.429 45.408C119.853 45.472 119.245 45.488 118.605 45.456C119.117 46.672 119.885 47.712 120.909 48.576C121.965 49.44 123.181 50.096 124.557 50.544C125.933 50.992 127.357 51.216 128.829 51.216ZM173.542 21.936C173.094 21.936 172.71 21.792 172.39 21.504C172.102 21.184 171.958 20.816 171.958 20.4C171.958 19.856 172.134 19.392 172.486 19.008C172.87 18.624 173.318 18.432 173.83 18.432C174.278 18.432 174.662 18.592 174.982 18.912C175.302 19.232 175.462 19.632 175.462 20.112C175.462 20.624 175.27 21.056 174.886 21.408C174.502 21.76 174.054 21.936 173.542 21.936ZM168.262 39.936C167.686 39.936 167.222 39.728 166.87 39.312C166.55 38.864 166.39 38.288 166.39 37.584C166.39 36.688 166.566 35.728 166.918 34.704C167.302 33.68 167.734 32.656 168.214 31.632C168.726 30.576 169.174 29.584 169.558 28.656C169.718 28.208 169.862 27.808 169.99 27.456C170.118 27.104 170.182 26.816 170.182 26.592C170.182 26.272 170.038 26.112 169.75 26.112C169.366 26.112 168.982 26.352 168.598 26.832C168.214 27.312 167.862 27.856 167.542 28.464C167.254 29.04 167.014 29.504 166.822 29.856C166.342 30.784 165.814 31.744 165.238 32.736C164.694 33.728 164.134 34.64 163.558 35.472C163.558 35.504 163.526 35.52 163.462 35.52C163.398 35.52 163.318 35.472 163.222 35.376C163.126 35.28 163.094 35.216 163.126 35.184C163.734 34.32 164.294 33.408 164.806 32.448C165.35 31.456 165.846 30.512 166.294 29.616C166.614 28.944 166.966 28.256 167.35 27.552C167.766 26.816 168.246 26.208 168.79 25.728C169.334 25.216 169.958 24.96 170.662 24.96C170.982 24.96 171.35 25.04 171.766 25.2C172.246 25.392 172.486 25.808 172.486 26.448C172.486 26.768 172.422 27.152 172.294 27.6C172.198 28.016 172.054 28.496 171.862 29.04C171.446 30.128 170.982 31.232 170.47 32.352C169.99 33.44 169.542 34.544 169.126 35.664C168.806 36.528 168.646 37.296 168.646 37.968C168.646 38.704 168.886 39.072 169.366 39.072C169.814 39.072 170.502 38.672 171.43 37.872C172.358 37.04 173.222 36 174.022 34.752C174.822 33.472 175.782 31.76 176.902 29.616C176.934 29.552 176.998 29.52 177.094 29.52C177.158 29.52 177.222 29.568 177.286 29.664C177.382 29.728 177.414 29.792 177.382 29.856C175.686 33.152 174.166 35.664 172.822 37.392C171.478 39.088 169.958 39.936 168.262 39.936ZM178.472 40.176C176.424 40.176 175.016 39.808 174.248 39.072C173.512 38.336 173.144 37.52 173.144 36.624C173.144 35.792 173.352 35.04 173.768 34.368C174.184 33.664 174.6 33.248 175.016 33.12C175.304 32.608 175.608 32.048 175.928 31.44C176.28 30.832 176.6 30.24 176.888 29.664C177.464 28.512 178.056 27.424 178.664 26.4C179.272 25.344 179.928 24.496 180.632 23.856C181.368 23.216 182.136 22.896 182.936 22.896C183.32 22.896 183.72 22.976 184.136 23.136C184.552 23.328 184.76 23.52 184.76 23.712C184.76 23.84 184.696 23.936 184.568 24C184.44 24.064 184.296 24.08 184.136 24.048C183.56 23.888 183.032 24.048 182.552 24.528C182.072 25.008 181.832 25.664 181.832 26.496C181.832 26.624 181.832 26.768 181.832 26.928C181.864 27.056 181.896 27.2 181.928 27.36C182.12 28.128 182.312 29.008 182.504 30C182.728 30.992 182.84 32 182.84 33.024C182.84 33.408 182.824 33.792 182.792 34.176C182.76 34.56 182.68 34.928 182.552 35.28C182.136 36.464 181.56 37.408 180.824 38.112C180.12 38.784 179.256 39.28 178.232 39.6C179 39.632 179.8 39.568 180.632 39.408C181.496 39.216 182.232 38.944 182.84 38.592C183.896 37.984 184.824 37.152 185.624 36.096C186.456 35.04 187.192 33.936 187.832 32.784C188.472 31.6 189.048 30.528 189.56 29.568C189.592 29.44 189.688 29.376 189.848 29.376C189.944 29.376 190.024 29.424 190.088 29.52C190.152 29.584 190.152 29.664 190.088 29.76C189.448 30.944 188.792 32.144 188.12 33.36C187.448 34.544 186.696 35.648 185.864 36.672C185.032 37.664 184.04 38.48 182.888 39.12C181.64 39.824 180.168 40.176 178.472 40.176ZM176.504 39.36C177.144 39.36 177.8 39.152 178.472 38.736C179.144 38.32 179.624 37.712 179.912 36.912C180.264 35.92 180.472 34.816 180.536 33.6C180.632 32.352 180.68 31.184 180.68 30.096C180.68 29.008 180.696 28.176 180.728 27.6C180.792 26.704 181.032 25.872 181.448 25.104C181.864 24.304 182.568 23.824 183.56 23.664C183.336 23.536 183.112 23.472 182.888 23.472C182.344 23.472 181.784 23.712 181.208 24.192C180.632 24.672 180.2 25.104 179.912 25.488C179.464 26.096 179.032 26.816 178.616 27.648C178.2 28.48 177.736 29.36 177.224 30.288L175.784 32.88C175.88 32.848 176.024 32.832 176.216 32.832C176.728 32.832 177.048 32.976 177.176 33.264C177.336 33.552 177.384 33.76 177.32 33.888C177.224 33.856 177.128 33.84 177.032 33.84C176.968 33.808 176.904 33.792 176.84 33.792C176.296 33.792 175.816 34.016 175.4 34.464C175.016 34.912 174.744 35.408 174.584 35.952C174.52 36.176 174.472 36.4 174.44 36.624C174.408 36.816 174.392 36.992 174.392 37.152C174.392 37.92 174.6 38.48 175.016 38.832C175.432 39.184 175.928 39.36 176.504 39.36ZM189.017 39.888C188.281 39.888 187.753 39.616 187.433 39.072C187.113 38.528 186.953 37.888 186.953 37.152C186.953 36.16 187.161 35.168 187.577 34.176C188.249 32.416 188.873 30.896 189.449 29.616C190.057 28.336 190.665 27.104 191.273 25.92H189.977C189.849 25.92 189.785 25.856 189.785 25.728C189.785 25.632 189.833 25.52 189.929 25.392C190.025 25.264 190.137 25.2 190.265 25.2H191.657L195.113 18.288C195.657 18.16 196.233 18.016 196.841 17.856C197.481 17.664 198.057 17.456 198.569 17.232C198.057 18.096 197.353 19.232 196.457 20.64C195.561 22.016 194.649 23.536 193.721 25.2H197.129C197.257 25.2 197.321 25.264 197.321 25.392C197.321 25.488 197.273 25.6 197.177 25.728C197.081 25.856 196.969 25.92 196.841 25.92H193.289C192.297 27.68 191.401 29.504 190.601 31.392C189.833 33.28 189.321 35.056 189.065 36.72C189.033 36.848 189.017 36.992 189.017 37.152C189.017 37.28 189.017 37.392 189.017 37.488C189.017 38.352 189.305 38.784 189.881 38.784C190.233 38.784 190.633 38.64 191.081 38.352C191.529 38.032 191.961 37.664 192.377 37.248C193.401 36.224 194.281 35.088 195.017 33.84C195.785 32.592 196.489 31.328 197.129 30.048C197.193 29.984 197.241 29.952 197.273 29.952C197.497 29.952 197.609 30.08 197.609 30.336C197.577 30.336 197.481 30.48 197.321 30.768C197.193 31.056 197.113 31.216 197.081 31.248C196.505 32.368 195.913 33.44 195.305 34.464C194.697 35.488 193.961 36.464 193.097 37.392C192.617 37.904 192.009 38.448 191.273 39.024C190.537 39.6 189.785 39.888 189.017 39.888ZM204.62 21.936C204.172 21.936 203.788 21.792 203.468 21.504C203.18 21.184 203.036 20.816 203.036 20.4C203.036 19.856 203.212 19.392 203.564 19.008C203.948 18.624 204.396 18.432 204.908 18.432C205.356 18.432 205.74 18.592 206.06 18.912C206.38 19.232 206.54 19.632 206.54 20.112C206.54 20.624 206.348 21.056 205.964 21.408C205.58 21.76 205.132 21.936 204.62 21.936ZM199.34 39.936C198.764 39.936 198.3 39.728 197.948 39.312C197.628 38.864 197.468 38.288 197.468 37.584C197.468 36.688 197.644 35.728 197.996 34.704C198.38 33.68 198.812 32.656 199.292 31.632C199.804 30.576 200.252 29.584 200.636 28.656C200.796 28.208 200.94 27.808 201.068 27.456C201.196 27.104 201.26 26.816 201.26 26.592C201.26 26.272 201.116 26.112 200.828 26.112C200.444 26.112 200.06 26.352 199.676 26.832C199.292 27.312 198.94 27.856 198.62 28.464C198.332 29.04 198.092 29.504 197.9 29.856C197.42 30.784 196.892 31.744 196.316 32.736C195.772 33.728 195.212 34.64 194.636 35.472C194.636 35.504 194.604 35.52 194.54 35.52C194.476 35.52 194.396 35.472 194.3 35.376C194.204 35.28 194.172 35.216 194.204 35.184C194.812 34.32 195.372 33.408 195.884 32.448C196.428 31.456 196.924 30.512 197.372 29.616C197.692 28.944 198.044 28.256 198.428 27.552C198.844 26.816 199.324 26.208 199.868 25.728C200.412 25.216 201.036 24.96 201.74 24.96C202.06 24.96 202.428 25.04 202.844 25.2C203.324 25.392 203.564 25.808 203.564 26.448C203.564 26.768 203.5 27.152 203.372 27.6C203.276 28.016 203.132 28.496 202.94 29.04C202.524 30.128 202.06 31.232 201.548 32.352C201.068 33.44 200.62 34.544 200.204 35.664C199.884 36.528 199.724 37.296 199.724 37.968C199.724 38.704 199.964 39.072 200.444 39.072C200.892 39.072 201.58 38.672 202.508 37.872C203.436 37.04 204.3 36 205.1 34.752C205.9 33.472 206.86 31.76 207.98 29.616C208.012 29.552 208.076 29.52 208.172 29.52C208.236 29.52 208.3 29.568 208.364 29.664C208.46 29.728 208.492 29.792 208.46 29.856C206.764 33.152 205.244 35.664 203.9 37.392C202.556 39.088 201.036 39.936 199.34 39.936ZM216.366 39.936C215.022 39.936 214.35 39.184 214.35 37.68C214.35 37.104 214.462 36.416 214.686 35.616C214.91 34.816 215.262 33.936 215.742 32.976C215.998 32.432 216.334 31.792 216.75 31.056C217.198 30.288 217.598 29.536 217.95 28.8C218.302 28.064 218.478 27.488 218.478 27.072C218.478 26.656 218.254 26.448 217.806 26.448C217.198 26.448 216.558 26.784 215.886 27.456C215.246 28.096 214.606 28.928 213.966 29.952C213.326 30.976 212.718 32.048 212.142 33.168C211.566 34.288 211.07 35.344 210.654 36.336C210.238 37.296 209.934 38.032 209.742 38.544C209.55 39.024 209.278 39.328 208.926 39.456C208.574 39.584 208.19 39.648 207.774 39.648C207.39 39.648 207.022 39.712 206.67 39.84C207.118 38.816 207.486 37.984 207.774 37.344C208.062 36.704 208.366 36.064 208.686 35.424C209.006 34.752 209.39 33.856 209.838 32.736C210.094 32.16 210.382 31.504 210.702 30.768C211.022 30 211.294 29.264 211.518 28.56C211.774 27.824 211.902 27.248 211.902 26.832C211.902 26.352 211.742 26.112 211.422 26.112C211.038 26.112 210.654 26.352 210.27 26.832C209.886 27.312 209.534 27.856 209.214 28.464C208.926 29.04 208.686 29.504 208.494 29.856C208.014 30.784 207.534 31.696 207.054 32.592C206.574 33.488 206.03 34.352 205.422 35.184H205.374C205.278 35.184 205.166 35.152 205.038 35.088C204.942 35.024 204.91 34.976 204.942 34.944C205.486 34.08 205.998 33.216 206.478 32.352C206.99 31.488 207.454 30.624 207.87 29.76C208.222 29.088 208.606 28.384 209.022 27.648C209.438 26.88 209.918 26.24 210.462 25.728C211.006 25.216 211.63 24.96 212.334 24.96C212.654 24.96 213.022 25.04 213.438 25.2C213.886 25.392 214.11 25.824 214.11 26.496C214.11 26.848 214.046 27.28 213.918 27.792C213.79 28.304 213.614 28.88 213.39 29.52C214.222 28.336 215.102 27.328 216.03 26.496C216.958 25.632 217.806 25.2 218.574 25.2C219.79 25.2 220.398 25.776 220.398 26.928C220.398 27.632 220.19 28.496 219.774 29.52C219.646 29.872 219.406 30.432 219.054 31.2C218.734 31.936 218.398 32.768 218.046 33.696C217.726 34.592 217.438 35.456 217.182 36.288C216.926 37.12 216.798 37.808 216.798 38.352C216.798 38.928 216.974 39.216 217.326 39.216C217.55 39.216 217.838 39.12 218.19 38.928C218.574 38.704 219.022 38.352 219.534 37.872C220.462 37.04 221.326 35.984 222.126 34.704C222.958 33.424 223.934 31.712 225.054 29.568C225.054 29.504 225.086 29.472 225.15 29.472C225.246 29.472 225.342 29.52 225.438 29.616C225.534 29.712 225.55 29.792 225.486 29.856C224.334 32.096 223.278 33.968 222.318 35.472C221.39 36.944 220.446 38.064 219.486 38.832C218.558 39.568 217.518 39.936 216.366 39.936ZM218.741 58.896C218.229 58.896 217.829 58.72 217.541 58.368C217.221 58.048 217.061 57.552 217.061 56.88C217.061 56.336 217.189 55.696 217.445 54.96C217.669 54.224 218.037 53.392 218.549 52.464C219.189 51.312 219.941 50.128 220.805 48.912C221.669 47.696 222.581 46.544 223.541 45.456C224.501 44.368 225.397 43.424 226.229 42.624C227.093 41.824 227.813 41.28 228.389 40.992C228.517 40.672 228.693 40.16 228.917 39.456C229.173 38.752 229.429 38.016 229.685 37.248C229.973 36.448 230.213 35.776 230.405 35.232C230.597 34.688 230.693 34.416 230.693 34.416C230.245 35.216 229.733 36.048 229.157 36.912C228.613 37.744 228.021 38.464 227.381 39.072C226.741 39.648 226.053 39.936 225.317 39.936C224.229 39.936 223.477 39.632 223.061 39.024C222.677 38.384 222.485 37.632 222.485 36.768C222.485 35.84 222.645 34.864 222.965 33.84C223.285 32.816 223.589 32 223.877 31.392C224.901 29.248 226.325 27.616 228.149 26.496C230.005 25.344 231.909 24.768 233.861 24.768C234.117 24.768 234.373 24.768 234.629 24.768C234.917 24.768 235.189 24.8 235.445 24.864C236.085 24.96 236.405 25.04 236.405 25.104C236.405 25.168 236.165 25.232 235.685 25.296C235.237 25.36 234.901 25.392 234.677 25.392C233.109 25.392 231.701 25.808 230.453 26.64C229.237 27.472 228.197 28.528 227.333 29.808C226.469 31.088 225.797 32.4 225.317 33.744C224.869 35.056 224.645 36.192 224.645 37.152C224.645 37.76 224.741 38.256 224.933 38.64C225.157 39.024 225.477 39.216 225.893 39.216C226.341 39.216 226.853 38.912 227.429 38.304C228.005 37.696 228.565 36.96 229.109 36.096C229.653 35.2 230.149 34.336 230.597 33.504C231.045 32.64 231.381 31.984 231.605 31.536L233.669 27.216C234.213 27.088 234.821 26.928 235.493 26.736C236.165 26.544 236.757 26.336 237.269 26.112C236.757 26.688 236.197 27.488 235.589 28.512C234.981 29.504 234.453 30.496 234.005 31.488C233.525 32.608 233.109 33.632 232.757 34.56C232.437 35.456 232.117 36.336 231.797 37.2C231.509 38.064 231.173 39.024 230.789 40.08C232.325 39.12 233.541 38.176 234.437 37.248C235.365 36.288 236.165 35.248 236.837 34.128C237.541 33.008 238.277 31.728 239.045 30.288C239.109 30.192 239.189 30.144 239.285 30.144C239.381 30.144 239.461 30.192 239.525 30.288C239.589 30.352 239.589 30.448 239.525 30.576C238.661 32.176 237.845 33.568 237.077 34.752C236.341 35.936 235.461 37.008 234.437 37.968C233.445 38.928 232.133 39.904 230.501 40.896C229.957 42.336 229.317 43.952 228.581 45.744C227.845 47.536 227.045 49.28 226.181 50.976C225.349 52.704 224.469 54.208 223.541 55.488C222.741 56.608 221.909 57.456 221.045 58.032C220.149 58.608 219.381 58.896 218.741 58.896ZM218.885 58.224C219.269 58.224 219.765 57.936 220.373 57.36C220.949 56.784 221.605 55.856 222.341 54.576C222.949 53.488 223.557 52.288 224.165 50.976C224.805 49.696 225.397 48.432 225.941 47.184C226.485 45.936 226.949 44.848 227.333 43.92C227.717 42.992 227.973 42.368 228.101 42.048C227.429 42.432 226.693 43.024 225.893 43.824C225.093 44.624 224.277 45.536 223.445 46.56C222.613 47.584 221.845 48.656 221.141 49.776C220.405 50.896 219.781 51.968 219.269 52.992C218.853 53.792 218.565 54.528 218.405 55.2C218.213 55.872 218.117 56.432 218.117 56.88C218.117 57.776 218.373 58.224 218.885 58.224ZM241.34 39.936C240.092 39.936 239.468 39.264 239.468 37.92C239.468 36.8 239.964 35.168 240.956 33.024C241.244 32.448 241.564 31.76 241.916 30.96C242.3 30.16 242.62 29.392 242.876 28.656C243.164 27.888 243.308 27.264 243.308 26.784C243.308 26.336 243.148 26.112 242.828 26.112C242.444 26.112 242.06 26.352 241.676 26.832C241.292 27.312 240.94 27.856 240.62 28.464C240.332 29.04 240.092 29.504 239.9 29.856C239.42 30.784 238.876 31.792 238.268 32.88C237.66 33.968 237.052 34.928 236.444 35.76H236.396C236.332 35.76 236.236 35.728 236.108 35.664C236.012 35.568 235.98 35.504 236.012 35.472C236.62 34.64 237.212 33.68 237.788 32.592C238.396 31.504 238.908 30.512 239.324 29.616C239.676 28.944 240.044 28.256 240.428 27.552C240.844 26.816 241.324 26.208 241.868 25.728C242.412 25.216 243.036 24.96 243.74 24.96C244.924 24.96 245.516 25.424 245.516 26.352C245.516 26.96 245.324 27.776 244.94 28.8C244.556 29.824 244.044 31.12 243.404 32.688C242.828 34.032 242.396 35.168 242.108 36.096C241.852 36.992 241.724 37.696 241.724 38.208C241.724 38.816 241.932 39.12 242.348 39.12C242.796 39.12 243.516 38.704 244.508 37.872C245.372 37.104 246.204 36.16 247.004 35.04C247.804 33.888 248.668 32.336 249.596 30.384C249.852 29.872 250.108 29.232 250.364 28.464C250.652 27.664 250.892 26.96 251.084 26.352C251.308 25.744 251.42 25.44 251.42 25.44C251.964 25.312 252.572 25.152 253.244 24.96C253.916 24.736 254.508 24.512 255.02 24.288C254.7 24.608 254.236 25.328 253.628 26.448C253.052 27.568 252.444 28.848 251.804 30.288C251.196 31.696 250.668 33.072 250.22 34.416C249.676 35.952 249.404 37.184 249.404 38.112C249.404 38.88 249.644 39.264 250.124 39.264C250.348 39.264 250.62 39.168 250.94 38.976C251.292 38.784 251.708 38.48 252.188 38.064C252.604 37.712 252.988 37.296 253.34 36.816C253.724 36.336 254.092 35.84 254.444 35.328C254.924 34.624 255.42 33.808 255.932 32.88C256.476 31.952 257.068 30.864 257.708 29.616C257.772 29.52 257.82 29.472 257.852 29.472C257.948 29.472 258.028 29.52 258.092 29.616C258.188 29.68 258.22 29.744 258.188 29.808C256.46 33.2 254.94 35.744 253.628 37.44C252.316 39.104 250.892 39.936 249.356 39.936C248.748 39.936 248.3 39.728 248.012 39.312C247.756 38.896 247.628 38.336 247.628 37.632C247.628 37.088 247.692 36.48 247.82 35.808C247.948 35.136 248.124 34.448 248.348 33.744C247.164 35.792 246.028 37.344 244.94 38.4C243.852 39.424 242.652 39.936 241.34 39.936ZM264.948 21.936C264.5 21.936 264.116 21.792 263.796 21.504C263.508 21.184 263.364 20.816 263.364 20.4C263.364 19.856 263.54 19.392 263.892 19.008C264.276 18.624 264.724 18.432 265.236 18.432C265.684 18.432 266.068 18.592 266.388 18.912C266.708 19.232 266.868 19.632 266.868 20.112C266.868 20.624 266.676 21.056 266.292 21.408C265.908 21.76 265.46 21.936 264.948 21.936ZM259.668 39.936C259.092 39.936 258.628 39.728 258.276 39.312C257.956 38.864 257.796 38.288 257.796 37.584C257.796 36.688 257.972 35.728 258.324 34.704C258.708 33.68 259.14 32.656 259.62 31.632C260.132 30.576 260.58 29.584 260.964 28.656C261.124 28.208 261.268 27.808 261.396 27.456C261.524 27.104 261.588 26.816 261.588 26.592C261.588 26.272 261.444 26.112 261.156 26.112C260.772 26.112 260.388 26.352 260.004 26.832C259.62 27.312 259.268 27.856 258.948 28.464C258.66 29.04 258.42 29.504 258.228 29.856C257.748 30.784 257.22 31.744 256.644 32.736C256.1 33.728 255.54 34.64 254.964 35.472C254.964 35.504 254.932 35.52 254.868 35.52C254.804 35.52 254.724 35.472 254.628 35.376C254.532 35.28 254.5 35.216 254.532 35.184C255.14 34.32 255.7 33.408 256.212 32.448C256.756 31.456 257.252 30.512 257.7 29.616C258.02 28.944 258.372 28.256 258.756 27.552C259.172 26.816 259.652 26.208 260.196 25.728C260.74 25.216 261.364 24.96 262.068 24.96C262.388 24.96 262.756 25.04 263.172 25.2C263.652 25.392 263.892 25.808 263.892 26.448C263.892 26.768 263.828 27.152 263.7 27.6C263.604 28.016 263.46 28.496 263.268 29.04C262.852 30.128 262.388 31.232 261.876 32.352C261.396 33.44 260.948 34.544 260.532 35.664C260.212 36.528 260.052 37.296 260.052 37.968C260.052 38.704 260.292 39.072 260.772 39.072C261.22 39.072 261.908 38.672 262.836 37.872C263.764 37.04 264.628 36 265.428 34.752C266.228 33.472 267.188 31.76 268.308 29.616C268.34 29.552 268.404 29.52 268.5 29.52C268.564 29.52 268.628 29.568 268.692 29.664C268.788 29.728 268.82 29.792 268.788 29.856C267.092 33.152 265.572 35.664 264.228 37.392C262.884 39.088 261.364 39.936 259.668 39.936ZM269.878 40.176C267.83 40.176 266.422 39.808 265.654 39.072C264.918 38.336 264.55 37.52 264.55 36.624C264.55 35.792 264.758 35.04 265.174 34.368C265.59 33.664 266.006 33.248 266.422 33.12C266.71 32.608 267.014 32.048 267.334 31.44C267.686 30.832 268.006 30.24 268.294 29.664C268.87 28.512 269.462 27.424 270.07 26.4C270.678 25.344 271.334 24.496 272.038 23.856C272.774 23.216 273.542 22.896 274.342 22.896C274.726 22.896 275.126 22.976 275.542 23.136C275.958 23.328 276.166 23.52 276.166 23.712C276.166 23.84 276.102 23.936 275.974 24C275.846 24.064 275.702 24.08 275.542 24.048C274.966 23.888 274.438 24.048 273.958 24.528C273.478 25.008 273.238 25.664 273.238 26.496C273.238 26.624 273.238 26.768 273.238 26.928C273.27 27.056 273.302 27.2 273.334 27.36C273.526 28.128 273.718 29.008 273.91 30C274.134 30.992 274.246 32 274.246 33.024C274.246 33.408 274.23 33.792 274.198 34.176C274.166 34.56 274.086 34.928 273.958 35.28C273.542 36.464 272.966 37.408 272.23 38.112C271.526 38.784 270.662 39.28 269.638 39.6C270.406 39.632 271.206 39.568 272.038 39.408C272.902 39.216 273.638 38.944 274.246 38.592C275.302 37.984 276.23 37.152 277.03 36.096C277.862 35.04 278.598 33.936 279.238 32.784C279.878 31.6 280.454 30.528 280.966 29.568C280.998 29.44 281.094 29.376 281.254 29.376C281.35 29.376 281.43 29.424 281.494 29.52C281.558 29.584 281.558 29.664 281.494 29.76C280.854 30.944 280.198 32.144 279.526 33.36C278.854 34.544 278.102 35.648 277.27 36.672C276.438 37.664 275.446 38.48 274.294 39.12C273.046 39.824 271.574 40.176 269.878 40.176ZM267.91 39.36C268.55 39.36 269.206 39.152 269.878 38.736C270.55 38.32 271.03 37.712 271.318 36.912C271.67 35.92 271.878 34.816 271.942 33.6C272.038 32.352 272.086 31.184 272.086 30.096C272.086 29.008 272.102 28.176 272.134 27.6C272.198 26.704 272.438 25.872 272.854 25.104C273.27 24.304 273.974 23.824 274.966 23.664C274.742 23.536 274.518 23.472 274.294 23.472C273.75 23.472 273.19 23.712 272.614 24.192C272.038 24.672 271.606 25.104 271.318 25.488C270.87 26.096 270.438 26.816 270.022 27.648C269.606 28.48 269.142 29.36 268.63 30.288L267.19 32.88C267.286 32.848 267.43 32.832 267.622 32.832C268.134 32.832 268.454 32.976 268.582 33.264C268.742 33.552 268.79 33.76 268.726 33.888C268.63 33.856 268.534 33.84 268.438 33.84C268.374 33.808 268.31 33.792 268.246 33.792C267.702 33.792 267.222 34.016 266.806 34.464C266.422 34.912 266.15 35.408 265.99 35.952C265.926 36.176 265.878 36.4 265.846 36.624C265.814 36.816 265.798 36.992 265.798 37.152C265.798 37.92 266.006 38.48 266.422 38.832C266.838 39.184 267.334 39.36 267.91 39.36ZM286.76 39.936C285.416 39.936 284.744 39.184 284.744 37.68C284.744 36.432 285.192 34.864 286.088 32.976C286.376 32.432 286.728 31.792 287.144 31.056C287.592 30.288 287.976 29.552 288.296 28.848C288.648 28.112 288.824 27.536 288.824 27.12C288.824 26.672 288.6 26.448 288.152 26.448C287.576 26.448 286.952 26.784 286.28 27.456C285.608 28.096 284.936 28.928 284.264 29.952C283.624 30.944 283.016 32 282.44 33.12C281.896 34.24 281.416 35.28 281 36.24C280.616 37.168 280.344 37.888 280.184 38.4C280.056 38.912 279.848 39.232 279.56 39.36C279.304 39.488 279 39.552 278.648 39.552C278.328 39.52 277.992 39.568 277.64 39.696C278.312 37.488 279.032 35.152 279.8 32.688C280.568 30.192 281.4 27.68 282.296 25.152C283.192 22.624 284.168 20.208 285.224 17.904C286.312 15.568 287.528 13.472 288.872 11.616C289.704 10.496 290.536 9.648 291.368 9.072C292.232 8.496 293 8.208 293.672 8.208C294.184 8.208 294.584 8.384 294.872 8.736C295.192 9.056 295.352 9.552 295.352 10.224C295.352 10.736 295.24 11.376 295.016 12.144C294.792 12.88 294.408 13.712 293.864 14.64C293.224 15.792 292.456 16.976 291.56 18.192C290.696 19.408 289.784 20.56 288.824 21.648C287.896 22.736 287 23.68 286.136 24.48C285.304 25.248 284.6 25.776 284.024 26.064C283.928 26.288 283.752 26.768 283.496 27.504C283.24 28.24 282.968 29.072 282.68 30C282.424 30.896 282.168 31.76 281.912 32.592C282.52 31.44 283.224 30.304 284.024 29.184C284.856 28.032 285.704 27.088 286.568 26.352C287.432 25.584 288.216 25.2 288.92 25.2C290.104 25.2 290.696 25.728 290.696 26.784C290.696 27.424 290.52 28.24 290.168 29.232C289.816 30.224 289.368 31.376 288.824 32.688C288.248 34.032 287.816 35.168 287.528 36.096C287.272 36.992 287.144 37.696 287.144 38.208C287.144 38.816 287.352 39.12 287.768 39.12C288.216 39.12 288.936 38.704 289.928 37.872C290.856 37.04 291.72 36 292.52 34.752C293.32 33.472 294.28 31.744 295.4 29.568C295.464 29.504 295.512 29.472 295.544 29.472C295.64 29.472 295.736 29.52 295.832 29.616C295.96 29.712 295.992 29.792 295.928 29.856C294.744 32.064 293.672 33.92 292.712 35.424C291.784 36.928 290.856 38.064 289.928 38.832C289 39.568 287.944 39.936 286.76 39.936ZM284.312 25.056C285.208 24.512 286.2 23.648 287.288 22.464C288.408 21.248 289.496 19.888 290.552 18.384C291.608 16.88 292.472 15.456 293.144 14.112C293.56 13.28 293.848 12.544 294.008 11.904C294.2 11.232 294.296 10.656 294.296 10.176C294.296 9.28 294.04 8.832 293.528 8.832C293.144 8.832 292.648 9.12 292.04 9.696C291.464 10.272 290.808 11.216 290.072 12.528C289.464 13.616 288.84 14.816 288.2 16.128C287.592 17.408 287.016 18.672 286.472 19.92C285.928 21.136 285.464 22.208 285.08 23.136C284.696 24.064 284.44 24.704 284.312 25.056ZM297.5 40.176C296.124 40.176 295.148 39.712 294.572 38.784C293.996 37.824 293.708 36.736 293.708 35.52C293.708 34.784 293.788 34.064 293.948 33.36C294.108 32.656 294.3 32 294.524 31.392C294.876 30.528 295.372 29.616 296.012 28.656C296.684 27.664 297.484 26.816 298.412 26.112C299.34 25.408 300.348 25.056 301.436 25.056C302.332 25.056 302.956 25.312 303.308 25.824C303.66 26.304 303.836 26.912 303.836 27.648C303.836 27.776 303.836 27.904 303.836 28.032C303.836 28.128 303.82 28.256 303.788 28.416C303.692 29.28 303.356 30.176 302.78 31.104C302.204 32.032 301.484 32.816 300.62 33.456C299.756 34.064 298.828 34.368 297.836 34.368C297.26 34.368 296.748 34.208 296.3 33.888C296.012 34.976 295.868 35.968 295.868 36.864C295.868 37.6 295.996 38.208 296.252 38.688C296.54 39.168 296.972 39.408 297.548 39.408C298.22 39.408 299.02 39.12 299.948 38.544C300.908 37.936 301.932 36.912 303.02 35.472C304.14 34.032 305.276 32.064 306.428 29.568C306.428 29.536 306.46 29.52 306.524 29.52C306.62 29.52 306.716 29.568 306.812 29.664C306.94 29.728 306.972 29.792 306.908 29.856C305.34 33.408 303.676 36.016 301.916 37.68C300.188 39.344 298.716 40.176 297.5 40.176ZM297.596 33.6C298.3 33.6 298.988 33.344 299.66 32.832C300.332 32.288 300.94 31.616 301.484 30.816C302.028 29.984 302.46 29.152 302.78 28.32C302.908 27.968 302.972 27.568 302.972 27.12C302.972 26.704 302.892 26.352 302.732 26.064C302.604 25.744 302.364 25.584 302.012 25.584C301.436 25.584 300.812 25.952 300.14 26.688C299.468 27.392 298.844 28.24 298.268 29.232C297.692 30.192 297.26 31.072 296.972 31.872C296.876 32.096 296.78 32.336 296.684 32.592C296.62 32.816 296.556 33.056 296.492 33.312C296.876 33.504 297.244 33.6 297.596 33.6ZM306.738 39.936C305.682 39.936 304.946 39.632 304.53 39.024C304.146 38.416 303.954 37.68 303.954 36.816C303.954 35.888 304.098 34.912 304.386 33.888C304.706 32.864 305.026 32.032 305.346 31.392C306.466 29.056 308.034 27.328 310.05 26.208C312.098 25.088 314.194 24.608 316.338 24.768C317.074 23.264 317.842 21.696 318.642 20.064C319.474 18.4 320.242 16.832 320.946 15.36C321.682 13.856 322.306 12.576 322.818 11.52C323.362 10.432 323.714 9.712 323.874 9.36C324.418 9.232 325.01 9.088 325.65 8.928C326.29 8.736 326.866 8.528 327.378 8.304C327.058 8.848 326.546 9.696 325.842 10.848C325.17 12 324.386 13.36 323.49 14.928C322.626 16.464 321.714 18.112 320.754 19.872C319.794 21.632 318.866 23.408 317.97 25.2V25.296C317.97 25.424 317.89 25.536 317.73 25.632C316.93 27.264 316.194 28.832 315.522 30.336C314.882 31.84 314.354 33.216 313.938 34.464C313.554 35.68 313.362 36.688 313.362 37.488C313.362 38.384 313.666 38.832 314.274 38.832C314.626 38.832 315.026 38.688 315.474 38.4C315.922 38.112 316.354 37.76 316.77 37.344C317.794 36.32 318.674 35.168 319.41 33.888C320.178 32.608 320.898 31.328 321.57 30.048C321.57 29.984 321.602 29.952 321.666 29.952C321.89 29.952 322.002 30.08 322.002 30.336C322.002 30.336 321.922 30.48 321.762 30.768C321.602 31.056 321.506 31.216 321.474 31.248C320.898 32.368 320.306 33.44 319.698 34.464C319.09 35.488 318.354 36.464 317.49 37.392C317.01 37.904 316.386 38.448 315.618 39.024C314.882 39.6 314.146 39.888 313.41 39.888C312.674 39.888 312.162 39.6 311.874 39.024C311.618 38.448 311.49 37.808 311.49 37.104C311.49 36.656 311.522 36.224 311.586 35.808C311.65 35.392 311.73 35.024 311.826 34.704C311.602 35.28 311.202 35.984 310.626 36.816C310.082 37.648 309.458 38.384 308.754 39.024C308.082 39.632 307.41 39.936 306.738 39.936ZM307.314 39.216C307.762 39.216 308.258 38.912 308.802 38.304C309.378 37.696 309.938 36.96 310.482 36.096C311.058 35.2 311.57 34.336 312.018 33.504C312.466 32.64 312.802 31.984 313.026 31.536L316.05 25.392C314.482 25.424 313.074 25.856 311.826 26.688C310.61 27.52 309.57 28.576 308.706 29.856C307.842 31.104 307.186 32.384 306.738 33.696C306.29 35.008 306.066 36.144 306.066 37.104C306.066 37.744 306.162 38.256 306.354 38.64C306.578 39.024 306.898 39.216 307.314 39.216ZM333.621 47.136C332.277 47.136 331.061 46.928 329.973 46.512C328.917 46.128 328.069 45.456 327.429 44.496C326.789 43.536 326.469 42.224 326.469 40.56C326.469 38.704 327.061 36.96 328.245 35.328C329.429 33.696 330.885 32.24 332.613 30.96C331.621 29.648 330.869 28.24 330.357 26.736C329.845 25.232 329.589 23.696 329.589 22.128C329.589 20.272 329.941 18.448 330.645 16.656C331.349 14.864 332.389 13.216 333.765 11.712C335.141 10.176 336.853 8.928 338.901 7.968C340.597 7.136 342.277 6.56 343.941 6.24C345.605 5.92 347.237 5.76 348.837 5.76C351.685 5.76 354.517 6.112 357.333 6.816C360.149 7.488 363.061 8.096 366.069 8.64L367.605 8.784C368.629 7.824 369.621 7.088 370.581 6.576C371.573 6.032 372.517 5.76 373.413 5.76C373.573 5.76 373.733 5.776 373.893 5.808C374.053 5.808 374.197 5.824 374.325 5.856C374.389 5.792 374.501 5.792 374.661 5.856C375.141 6.08 375.381 6.432 375.381 6.912C375.381 7.36 375.109 7.84 374.565 8.352C374.053 8.832 373.269 9.152 372.213 9.312C371.637 9.376 371.029 9.44 370.389 9.504C369.781 9.536 369.173 9.552 368.565 9.552C367.509 10.768 366.421 12.256 365.301 14.016C364.213 15.776 363.141 17.712 362.085 19.824C363.205 20.528 364.085 21.376 364.725 22.368C365.589 22.368 366.485 22.368 367.413 22.368C368.341 22.336 369.301 22.32 370.293 22.32C370.549 22.32 370.997 22.304 371.637 22.272C372.277 22.24 373.013 22.208 373.845 22.176C375.189 20.064 376.645 17.984 378.213 15.936C379.813 13.888 381.413 11.92 383.013 10.032C384.613 8.144 386.101 6.416 387.477 4.848C388.885 3.28 390.053 1.936 390.981 0.815999C391.141 0.624 391.301 0.528 391.461 0.528C391.621 0.528 391.701 0.64 391.701 0.864001C391.701 1.024 391.637 1.152 391.509 1.248C390.229 2.656 388.757 4.48 387.093 6.72C385.461 8.928 383.797 11.344 382.101 13.968C380.405 16.592 378.821 19.232 377.349 21.888C378.501 21.76 379.605 21.616 380.661 21.456C381.717 21.264 382.613 21.056 383.349 20.832C384.085 20.576 384.533 20.288 384.693 19.968C384.725 19.84 384.821 19.776 384.981 19.776C385.077 19.776 385.157 19.824 385.221 19.92C385.285 19.984 385.285 20.08 385.221 20.208C385.029 20.624 384.501 21.008 383.637 21.36C382.773 21.68 381.733 21.968 380.517 22.224C379.333 22.448 378.101 22.656 376.821 22.848C374.933 26.048 373.461 28.96 372.405 31.584C371.381 34.208 370.869 36.336 370.869 37.968C370.869 40.08 371.733 41.136 373.461 41.136C374.453 41.136 375.557 40.656 376.773 39.696C378.021 38.768 379.253 37.504 380.469 35.904C381.685 34.272 382.757 32.464 383.685 30.48C383.781 30.32 383.893 30.24 384.021 30.24C384.245 30.24 384.309 30.368 384.213 30.624C383.285 32.544 382.213 34.4 380.997 36.192C379.813 37.984 378.517 39.44 377.109 40.56C375.701 41.712 374.213 42.288 372.645 42.288C371.109 42.288 370.037 41.84 369.429 40.944C368.821 40.048 368.517 38.928 368.517 37.584C368.517 36.368 368.693 35.072 369.045 33.696C369.397 32.288 369.829 30.896 370.341 29.52C370.853 28.144 371.365 26.912 371.877 25.824C372.421 24.704 372.869 23.84 373.221 23.232C372.549 23.264 371.957 23.296 371.445 23.328C370.933 23.36 370.549 23.376 370.293 23.376H365.301C365.717 24.24 365.925 25.2 365.925 26.256C365.925 27.728 365.445 29.184 364.485 30.624C363.525 32.064 362.069 33.328 360.117 34.416C358.197 35.504 355.733 36.288 352.725 36.768C350.677 39.296 348.357 41.472 345.765 43.296C343.205 45.12 340.357 46.288 337.221 46.8C336.613 46.896 336.005 46.976 335.397 47.04C334.789 47.104 334.197 47.136 333.621 47.136ZM369.237 8.832C370.165 8.832 371.109 8.752 372.069 8.592C373.029 8.432 373.765 8.16 374.277 7.776C374.437 7.68 374.565 7.552 374.661 7.392C374.789 7.2 374.853 7.024 374.853 6.864C374.853 6.64 374.725 6.464 374.469 6.336C374.341 6.304 374.213 6.288 374.085 6.288C373.957 6.256 373.829 6.24 373.701 6.24C372.997 6.24 372.277 6.464 371.541 6.912C370.805 7.36 370.037 8 369.237 8.832ZM333.381 30.432C333.701 30.208 334.021 30 334.341 29.808C334.661 29.584 334.981 29.376 335.301 29.184C337.605 27.872 339.781 26.816 341.829 26.016C341.765 24.832 342.053 23.712 342.693 22.656C343.557 21.216 344.917 20 346.773 19.008C348.661 18.016 350.821 17.52 353.253 17.52C354.597 17.52 355.845 17.632 356.997 17.856C358.149 18.08 359.189 18.384 360.117 18.768C361.301 16.816 362.453 15.056 363.573 13.488C364.725 11.92 365.845 10.576 366.933 9.456L365.925 9.312C363.109 8.896 360.485 8.432 358.053 7.92C355.621 7.376 353.173 7.104 350.709 7.104C349.109 7.104 347.477 7.28 345.813 7.632C344.149 7.984 342.421 8.576 340.629 9.408C338.581 10.368 336.853 11.6 335.445 13.104C334.037 14.576 332.965 16.208 332.229 18C331.525 19.76 331.173 21.552 331.173 23.376C331.173 24.624 331.349 25.856 331.701 27.072C332.085 28.256 332.645 29.376 333.381 30.432ZM342.549 25.728C344.853 24.896 347.221 24.256 349.653 23.808C352.117 23.328 354.837 22.976 357.813 22.752C358.133 22.208 358.437 21.68 358.725 21.168C359.013 20.624 359.317 20.096 359.637 19.584C358.805 19.168 357.845 18.848 356.757 18.624C355.701 18.368 354.533 18.24 353.253 18.24C350.917 18.24 348.869 18.72 347.109 19.68C345.349 20.608 344.085 21.728 343.317 23.04C342.805 23.872 342.549 24.768 342.549 25.728ZM360.789 22.56C361.141 22.528 361.493 22.512 361.845 22.512C362.229 22.48 362.613 22.464 362.997 22.464C362.645 21.92 362.181 21.392 361.605 20.88C361.477 21.136 361.349 21.408 361.221 21.696C361.093 21.984 360.949 22.272 360.789 22.56ZM353.445 35.856C355.877 35.344 357.877 34.576 359.445 33.552C361.013 32.528 362.181 31.376 362.949 30.096C363.717 28.784 364.101 27.472 364.101 26.16C364.101 25.2 363.909 24.288 363.525 23.424L360.309 23.568C360.213 23.792 360.101 24.032 359.973 24.288C359.877 24.544 359.781 24.8 359.685 25.056C358.853 26.912 357.909 28.768 356.853 30.624C355.829 32.448 354.693 34.192 353.445 35.856ZM347.397 36.432C347.813 36.432 348.213 36.432 348.597 36.432C349.013 36.4 349.413 36.368 349.797 36.336C351.301 34.224 352.661 32.048 353.877 29.808C355.125 27.568 356.245 25.536 357.237 23.712C354.421 23.936 351.845 24.288 349.509 24.768C347.173 25.216 344.901 25.872 342.693 26.736C342.885 27.44 343.285 28.144 343.893 28.848C344.501 29.552 345.365 30.176 346.485 30.72C346.613 30.816 346.677 30.928 346.677 31.056C346.677 31.184 346.629 31.296 346.533 31.392C346.437 31.456 346.309 31.456 346.149 31.392C344.965 30.784 344.037 30.096 343.365 29.328C342.693 28.56 342.245 27.776 342.021 26.976C340.965 27.392 339.909 27.872 338.853 28.416C337.797 28.928 336.725 29.504 335.637 30.144C335.061 30.464 334.501 30.816 333.957 31.2C335.269 32.768 337.029 34.032 339.237 34.992C341.477 35.952 344.197 36.432 347.397 36.432ZM334.533 46.608C335.749 46.608 337.029 46.4 338.373 45.984C340.485 45.344 342.437 44.208 344.229 42.576C346.053 40.976 347.717 39.152 349.221 37.104C348.933 37.104 348.629 37.12 348.309 37.152C348.021 37.152 347.717 37.152 347.397 37.152C344.133 37.152 341.333 36.656 338.997 35.664C336.661 34.64 334.741 33.312 333.237 31.68C331.253 33.152 329.813 34.672 328.917 36.24C327.989 37.776 327.525 39.232 327.525 40.608C327.525 42.304 328.149 43.728 329.397 44.88C330.677 46.032 332.389 46.608 334.533 46.608ZM391.417 21.936C390.969 21.936 390.585 21.792 390.265 21.504C389.977 21.184 389.833 20.816 389.833 20.4C389.833 19.856 390.009 19.392 390.361 19.008C390.745 18.624 391.193 18.432 391.705 18.432C392.153 18.432 392.537 18.592 392.857 18.912C393.177 19.232 393.337 19.632 393.337 20.112C393.337 20.624 393.145 21.056 392.761 21.408C392.377 21.76 391.929 21.936 391.417 21.936ZM386.137 39.936C385.561 39.936 385.097 39.728 384.745 39.312C384.425 38.864 384.265 38.288 384.265 37.584C384.265 36.688 384.441 35.728 384.793 34.704C385.177 33.68 385.609 32.656 386.089 31.632C386.601 30.576 387.049 29.584 387.433 28.656C387.593 28.208 387.737 27.808 387.865 27.456C387.993 27.104 388.057 26.816 388.057 26.592C388.057 26.272 387.913 26.112 387.625 26.112C387.241 26.112 386.857 26.352 386.473 26.832C386.089 27.312 385.737 27.856 385.417 28.464C385.129 29.04 384.889 29.504 384.697 29.856C384.217 30.784 383.689 31.744 383.113 32.736C382.569 33.728 382.009 34.64 381.433 35.472C381.433 35.504 381.401 35.52 381.337 35.52C381.273 35.52 381.193 35.472 381.097 35.376C381.001 35.28 380.969 35.216 381.001 35.184C381.609 34.32 382.169 33.408 382.681 32.448C383.225 31.456 383.721 30.512 384.169 29.616C384.489 28.944 384.841 28.256 385.225 27.552C385.641 26.816 386.121 26.208 386.665 25.728C387.209 25.216 387.833 24.96 388.537 24.96C388.857 24.96 389.225 25.04 389.641 25.2C390.121 25.392 390.361 25.808 390.361 26.448C390.361 26.768 390.297 27.152 390.169 27.6C390.073 28.016 389.929 28.496 389.737 29.04C389.321 30.128 388.857 31.232 388.345 32.352C387.865 33.44 387.417 34.544 387.001 35.664C386.681 36.528 386.521 37.296 386.521 37.968C386.521 38.704 386.761 39.072 387.241 39.072C387.689 39.072 388.377 38.672 389.305 37.872C390.233 37.04 391.097 36 391.897 34.752C392.697 33.472 393.657 31.76 394.777 29.616C394.809 29.552 394.873 29.52 394.969 29.52C395.033 29.52 395.097 29.568 395.161 29.664C395.257 29.728 395.289 29.792 395.257 29.856C393.561 33.152 392.041 35.664 390.697 37.392C389.353 39.088 387.833 39.936 386.137 39.936ZM388.475 58.896C387.963 58.896 387.563 58.72 387.275 58.368C386.955 58.048 386.795 57.552 386.795 56.88C386.795 56.336 386.923 55.696 387.179 54.96C387.403 54.224 387.771 53.392 388.283 52.464C388.923 51.312 389.675 50.128 390.539 48.912C391.403 47.696 392.315 46.544 393.275 45.456C394.235 44.368 395.131 43.424 395.963 42.624C396.827 41.824 397.547 41.28 398.123 40.992C398.251 40.672 398.427 40.16 398.651 39.456C398.907 38.752 399.163 38.016 399.419 37.248C399.707 36.448 399.947 35.776 400.139 35.232C400.331 34.688 400.427 34.416 400.427 34.416C399.979 35.216 399.467 36.048 398.891 36.912C398.347 37.744 397.755 38.464 397.115 39.072C396.475 39.648 395.787 39.936 395.051 39.936C393.963 39.936 393.211 39.632 392.795 39.024C392.411 38.384 392.219 37.632 392.219 36.768C392.219 35.84 392.379 34.864 392.699 33.84C393.019 32.816 393.323 32 393.611 31.392C394.635 29.248 396.059 27.616 397.883 26.496C399.739 25.344 401.643 24.768 403.595 24.768C403.851 24.768 404.107 24.768 404.363 24.768C404.651 24.768 404.923 24.8 405.179 24.864C405.819 24.96 406.139 25.04 406.139 25.104C406.139 25.168 405.899 25.232 405.419 25.296C404.971 25.36 404.635 25.392 404.411 25.392C402.843 25.392 401.435 25.808 400.187 26.64C398.971 27.472 397.931 28.528 397.067 29.808C396.203 31.088 395.531 32.4 395.051 33.744C394.603 35.056 394.379 36.192 394.379 37.152C394.379 37.76 394.475 38.256 394.667 38.64C394.891 39.024 395.211 39.216 395.627 39.216C396.075 39.216 396.587 38.912 397.163 38.304C397.739 37.696 398.299 36.96 398.843 36.096C399.387 35.2 399.883 34.336 400.331 33.504C400.779 32.64 401.115 31.984 401.339 31.536L403.403 27.216C403.947 27.088 404.555 26.928 405.227 26.736C405.899 26.544 406.491 26.336 407.003 26.112C406.491 26.688 405.931 27.488 405.323 28.512C404.715 29.504 404.187 30.496 403.739 31.488C403.259 32.608 402.843 33.632 402.491 34.56C402.171 35.456 401.851 36.336 401.531 37.2C401.243 38.064 400.907 39.024 400.523 40.08C402.059 39.12 403.275 38.176 404.171 37.248C405.099 36.288 405.899 35.248 406.571 34.128C407.275 33.008 408.011 31.728 408.779 30.288C408.843 30.192 408.923 30.144 409.019 30.144C409.115 30.144 409.195 30.192 409.259 30.288C409.323 30.352 409.323 30.448 409.259 30.576C408.395 32.176 407.579 33.568 406.811 34.752C406.075 35.936 405.195 37.008 404.171 37.968C403.179 38.928 401.867 39.904 400.235 40.896C399.691 42.336 399.051 43.952 398.315 45.744C397.579 47.536 396.779 49.28 395.915 50.976C395.083 52.704 394.203 54.208 393.275 55.488C392.475 56.608 391.643 57.456 390.779 58.032C389.883 58.608 389.115 58.896 388.475 58.896ZM388.619 58.224C389.003 58.224 389.499 57.936 390.107 57.36C390.683 56.784 391.339 55.856 392.075 54.576C392.683 53.488 393.291 52.288 393.899 50.976C394.539 49.696 395.131 48.432 395.675 47.184C396.219 45.936 396.683 44.848 397.067 43.92C397.451 42.992 397.707 42.368 397.835 42.048C397.163 42.432 396.427 43.024 395.627 43.824C394.827 44.624 394.011 45.536 393.179 46.56C392.347 47.584 391.579 48.656 390.875 49.776C390.139 50.896 389.515 51.968 389.003 52.992C388.587 53.792 388.299 54.528 388.139 55.2C387.947 55.872 387.851 56.432 387.851 56.88C387.851 57.776 388.107 58.224 388.619 58.224ZM414.963 39.936C413.619 39.936 412.947 39.184 412.947 37.68C412.947 36.432 413.395 34.864 414.291 32.976C414.579 32.432 414.931 31.792 415.347 31.056C415.795 30.288 416.179 29.552 416.499 28.848C416.851 28.112 417.027 27.536 417.027 27.12C417.027 26.672 416.803 26.448 416.355 26.448C415.779 26.448 415.155 26.784 414.483 27.456C413.811 28.096 413.139 28.928 412.467 29.952C411.827 30.944 411.219 32 410.643 33.12C410.099 34.24 409.619 35.28 409.203 36.24C408.819 37.168 408.547 37.888 408.387 38.4C408.259 38.912 408.051 39.232 407.763 39.36C407.507 39.488 407.203 39.552 406.851 39.552C406.531 39.52 406.195 39.568 405.843 39.696C406.515 37.488 407.235 35.152 408.003 32.688C408.771 30.192 409.603 27.68 410.499 25.152C411.395 22.624 412.371 20.208 413.427 17.904C414.515 15.568 415.731 13.472 417.075 11.616C417.907 10.496 418.739 9.648 419.571 9.072C420.435 8.496 421.203 8.208 421.875 8.208C422.387 8.208 422.787 8.384 423.075 8.736C423.395 9.056 423.555 9.552 423.555 10.224C423.555 10.736 423.443 11.376 423.219 12.144C422.995 12.88 422.611 13.712 422.067 14.64C421.427 15.792 420.659 16.976 419.763 18.192C418.899 19.408 417.987 20.56 417.027 21.648C416.099 22.736 415.203 23.68 414.339 24.48C413.507 25.248 412.803 25.776 412.227 26.064C412.131 26.288 411.955 26.768 411.699 27.504C411.443 28.24 411.171 29.072 410.883 30C410.627 30.896 410.371 31.76 410.115 32.592C410.723 31.44 411.427 30.304 412.227 29.184C413.059 28.032 413.907 27.088 414.771 26.352C415.635 25.584 416.419 25.2 417.123 25.2C418.307 25.2 418.899 25.728 418.899 26.784C418.899 27.424 418.723 28.24 418.371 29.232C418.019 30.224 417.571 31.376 417.027 32.688C416.451 34.032 416.019 35.168 415.731 36.096C415.475 36.992 415.347 37.696 415.347 38.208C415.347 38.816 415.555 39.12 415.971 39.12C416.419 39.12 417.139 38.704 418.131 37.872C419.059 37.04 419.923 36 420.723 34.752C421.523 33.472 422.483 31.744 423.603 29.568C423.667 29.504 423.715 29.472 423.747 29.472C423.843 29.472 423.939 29.52 424.035 29.616C424.163 29.712 424.195 29.792 424.131 29.856C422.947 32.064 421.875 33.92 420.915 35.424C419.987 36.928 419.059 38.064 418.131 38.832C417.203 39.568 416.147 39.936 414.963 39.936ZM412.515 25.056C413.411 24.512 414.403 23.648 415.491 22.464C416.611 21.248 417.699 19.888 418.755 18.384C419.811 16.88 420.675 15.456 421.347 14.112C421.763 13.28 422.051 12.544 422.211 11.904C422.403 11.232 422.499 10.656 422.499 10.176C422.499 9.28 422.243 8.832 421.731 8.832C421.347 8.832 420.851 9.12 420.243 9.696C419.667 10.272 419.011 11.216 418.275 12.528C417.667 13.616 417.043 14.816 416.403 16.128C415.795 17.408 415.219 18.672 414.675 19.92C414.131 21.136 413.667 22.208 413.283 23.136C412.899 24.064 412.643 24.704 412.515 25.056ZM450.362 44.544C448.634 44.544 446.97 44.288 445.37 43.776C443.77 43.296 442.362 42.56 441.146 41.568C440.442 41.696 439.706 41.792 438.938 41.856C438.17 41.92 437.37 41.952 436.538 41.952C435.834 41.952 435.034 41.856 434.138 41.664C433.242 41.472 432.554 41.152 432.074 40.704C432.01 40.64 431.978 40.576 431.978 40.512C431.978 40.384 432.026 40.288 432.122 40.224C432.25 40.192 432.362 40.224 432.458 40.32C432.842 40.64 433.434 40.864 434.234 40.992C435.034 41.152 435.802 41.232 436.538 41.232C437.946 41.232 439.242 41.136 440.426 40.944C439.37 39.92 438.538 38.688 437.93 37.248C437.322 35.808 437.05 34.16 437.114 32.304C435.45 31.664 434.218 30.736 433.418 29.52C432.618 28.304 432.218 27.008 432.218 25.632C432.218 24.288 432.586 23.008 433.322 21.792C434.09 20.544 435.194 19.52 436.634 18.72C438.106 17.92 439.898 17.52 442.01 17.52C442.906 17.52 443.882 17.616 444.938 17.808C446.826 16.368 448.73 15.312 450.65 14.64C452.57 13.968 454.138 13.632 455.354 13.632C457.338 13.632 458.794 14.128 459.722 15.12C460.65 16.08 461.114 17.296 461.114 18.768C461.114 20.432 460.554 22.24 459.434 24.192C458.314 26.144 456.682 27.872 454.538 29.376C454.41 31.04 453.866 32.688 452.906 34.32C451.978 35.92 450.65 37.344 448.922 38.592C447.194 39.84 445.034 40.752 442.442 41.328C444.234 42.544 446.298 43.152 448.634 43.152C450.394 43.152 452.154 42.768 453.914 42C455.706 41.232 457.338 40.064 458.81 38.496C460.314 36.896 461.514 34.88 462.41 32.448C463.306 29.984 463.754 27.072 463.754 23.712C463.754 23.04 463.738 22.352 463.706 21.648C463.674 20.912 463.61 20.16 463.514 19.392C463.418 18.432 463.21 17.408 462.89 16.32C462.602 15.232 462.33 14.112 462.074 12.96C461.818 11.808 461.69 10.672 461.69 9.552C461.69 8.496 461.85 7.472 462.17 6.48C462.522 5.456 463.146 4.496 464.042 3.6C464.778 2.832 465.642 2.272 466.634 1.92C467.658 1.536 468.65 1.344 469.61 1.344C471.21 1.344 472.426 1.76 473.258 2.592C473.578 2.912 473.802 3.232 473.93 3.552C474.058 3.84 474.122 4.112 474.122 4.368C474.122 4.88 473.93 5.136 473.546 5.136C473.29 5.136 473.034 4.992 472.778 4.704C472.298 4.16 471.642 3.744 470.81 3.456C470.01 3.136 469.194 2.976 468.362 2.976C467.722 2.976 467.098 3.072 466.49 3.264C465.914 3.456 465.402 3.776 464.954 4.224C464.25 4.928 463.738 5.712 463.418 6.576C463.13 7.408 462.986 8.288 462.986 9.216C462.986 10.4 463.162 11.616 463.514 12.864C463.898 14.112 464.33 15.328 464.81 16.512C465.29 17.664 465.674 18.752 465.962 19.776C466.826 22.688 467.258 25.344 467.258 27.744C467.258 30.56 466.762 33.024 465.77 35.136C464.81 37.248 463.498 38.992 461.834 40.368C460.202 41.776 458.378 42.816 456.362 43.488C454.378 44.192 452.378 44.544 450.362 44.544ZM454.586 28.032C456.442 26.56 457.882 24.96 458.906 23.232C459.93 21.472 460.442 19.872 460.442 18.432C460.442 17.216 460.026 16.208 459.194 15.408C458.394 14.608 457.114 14.208 455.354 14.208C454.234 14.208 452.81 14.512 451.082 15.12C449.386 15.728 447.69 16.688 445.994 18C448.746 18.704 450.842 20 452.282 21.888C453.722 23.744 454.49 25.792 454.586 28.032ZM437.162 31.392C437.258 30.624 437.402 29.792 437.594 28.896C438.138 26.528 439.018 24.48 440.234 22.752C441.482 20.992 442.842 19.504 444.314 18.288C443.93 18.224 443.562 18.176 443.21 18.144C442.858 18.112 442.506 18.096 442.154 18.096C440.234 18.096 438.602 18.464 437.258 19.2C435.946 19.936 434.938 20.88 434.234 22.032C433.562 23.184 433.226 24.368 433.226 25.584C433.226 26.736 433.546 27.84 434.186 28.896C434.826 29.952 435.818 30.784 437.162 31.392ZM442.106 32.352C444.474 32.352 446.65 31.984 448.634 31.248C450.65 30.512 452.442 29.584 454.01 28.464C454.042 26.96 453.722 25.536 453.05 24.192C452.41 22.816 451.45 21.632 450.17 20.64C448.89 19.616 447.306 18.896 445.418 18.48C443.946 19.664 442.602 21.152 441.386 22.944C440.17 24.704 439.29 26.768 438.746 29.136C438.522 30.032 438.378 30.928 438.314 31.824C439.434 32.176 440.698 32.352 442.106 32.352ZM441.674 40.752C444.202 40.24 446.33 39.424 448.058 38.304C449.818 37.184 451.178 35.888 452.138 34.416C453.098 32.912 453.69 31.376 453.914 29.808C452.378 30.8 450.618 31.616 448.634 32.256C446.65 32.864 444.474 33.168 442.106 33.168C441.402 33.168 440.714 33.12 440.042 33.024C439.402 32.928 438.81 32.816 438.266 32.688C438.234 34.448 438.522 36.016 439.13 37.392C439.77 38.736 440.618 39.856 441.674 40.752ZM474.079 40.176C472.703 40.176 471.727 39.712 471.151 38.784C470.575 37.824 470.287 36.736 470.287 35.52C470.287 34.784 470.367 34.064 470.527 33.36C470.687 32.656 470.879 32 471.103 31.392C471.455 30.528 471.919 29.616 472.495 28.656C473.103 27.664 473.823 26.816 474.655 26.112C475.519 25.408 476.511 25.056 477.631 25.056C478.623 25.056 479.343 25.344 479.791 25.92C480.271 26.464 480.511 27.152 480.511 27.984C480.511 28.976 480.287 29.728 479.839 30.24C479.423 30.752 479.039 31.008 478.687 31.008C478.239 31.008 478.015 30.736 478.015 30.192C478.015 29.84 478.127 29.424 478.351 28.944C478.767 28.048 478.975 27.296 478.975 26.688C478.975 25.92 478.623 25.536 477.919 25.536C477.311 25.536 476.719 25.904 476.143 26.64C475.567 27.376 475.055 28.24 474.607 29.232C474.191 30.224 473.839 31.104 473.551 31.872C473.231 32.768 472.959 33.648 472.735 34.512C472.543 35.376 472.447 36.16 472.447 36.864C472.447 37.6 472.575 38.208 472.831 38.688C473.119 39.168 473.551 39.408 474.127 39.408C474.799 39.408 475.599 39.12 476.527 38.544C477.487 37.936 478.511 36.912 479.599 35.472C480.719 34.032 481.855 32.064 483.007 29.568C483.007 29.536 483.039 29.52 483.103 29.52C483.199 29.52 483.295 29.568 483.391 29.664C483.519 29.728 483.551 29.792 483.487 29.856C481.919 33.408 480.255 36.016 478.495 37.68C476.767 39.344 475.295 40.176 474.079 40.176ZM488.885 39.936C487.541 39.936 486.869 39.184 486.869 37.68C486.869 36.432 487.317 34.864 488.213 32.976C488.501 32.432 488.853 31.792 489.269 31.056C489.717 30.288 490.101 29.552 490.421 28.848C490.773 28.112 490.949 27.536 490.949 27.12C490.949 26.672 490.725 26.448 490.277 26.448C489.701 26.448 489.077 26.784 488.405 27.456C487.733 28.096 487.061 28.928 486.389 29.952C485.749 30.944 485.141 32 484.565 33.12C484.021 34.24 483.541 35.28 483.125 36.24C482.741 37.168 482.469 37.888 482.309 38.4C482.181 38.912 481.973 39.232 481.685 39.36C481.429 39.488 481.125 39.552 480.773 39.552C480.453 39.52 480.117 39.568 479.765 39.696C480.437 37.488 481.157 35.152 481.925 32.688C482.693 30.192 483.525 27.68 484.421 25.152C485.317 22.624 486.293 20.208 487.349 17.904C488.437 15.568 489.653 13.472 490.997 11.616C491.829 10.496 492.661 9.648 493.493 9.072C494.357 8.496 495.125 8.208 495.797 8.208C496.309 8.208 496.709 8.384 496.997 8.736C497.317 9.056 497.477 9.552 497.477 10.224C497.477 10.736 497.365 11.376 497.141 12.144C496.917 12.88 496.533 13.712 495.989 14.64C495.349 15.792 494.581 16.976 493.685 18.192C492.821 19.408 491.909 20.56 490.949 21.648C490.021 22.736 489.125 23.68 488.261 24.48C487.429 25.248 486.725 25.776 486.149 26.064C486.053 26.288 485.877 26.768 485.621 27.504C485.365 28.24 485.093 29.072 484.805 30C484.549 30.896 484.293 31.76 484.037 32.592C484.645 31.44 485.349 30.304 486.149 29.184C486.981 28.032 487.829 27.088 488.693 26.352C489.557 25.584 490.341 25.2 491.045 25.2C492.229 25.2 492.821 25.728 492.821 26.784C492.821 27.424 492.645 28.24 492.293 29.232C491.941 30.224 491.493 31.376 490.949 32.688C490.373 34.032 489.941 35.168 489.653 36.096C489.397 36.992 489.269 37.696 489.269 38.208C489.269 38.816 489.477 39.12 489.893 39.12C490.341 39.12 491.061 38.704 492.053 37.872C492.981 37.04 493.845 36 494.645 34.752C495.445 33.472 496.405 31.744 497.525 29.568C497.589 29.504 497.637 29.472 497.669 29.472C497.765 29.472 497.861 29.52 497.957 29.616C498.085 29.712 498.117 29.792 498.053 29.856C496.869 32.064 495.797 33.92 494.837 35.424C493.909 36.928 492.981 38.064 492.053 38.832C491.125 39.568 490.069 39.936 488.885 39.936ZM486.437 25.056C487.333 24.512 488.325 23.648 489.413 22.464C490.533 21.248 491.621 19.888 492.677 18.384C493.733 16.88 494.597 15.456 495.269 14.112C495.685 13.28 495.973 12.544 496.133 11.904C496.325 11.232 496.421 10.656 496.421 10.176C496.421 9.28 496.165 8.832 495.653 8.832C495.269 8.832 494.773 9.12 494.165 9.696C493.589 10.272 492.933 11.216 492.197 12.528C491.589 13.616 490.965 14.816 490.325 16.128C489.717 17.408 489.141 18.672 488.597 19.92C488.053 21.136 487.589 22.208 487.205 23.136C486.821 24.064 486.565 24.704 486.437 25.056ZM497.993 39.936C496.937 39.936 496.201 39.648 495.785 39.072C495.401 38.464 495.209 37.728 495.209 36.864C495.209 35.936 495.369 34.96 495.689 33.936C496.009 32.88 496.313 32.032 496.601 31.392C497.465 29.376 498.553 27.808 499.865 26.688C501.177 25.536 502.377 24.96 503.465 24.96C504.393 24.96 505.017 25.232 505.337 25.776C505.689 26.32 505.865 26.992 505.865 27.792C505.865 28.624 505.721 29.504 505.433 30.432C505.177 31.328 504.889 32.096 504.569 32.736C504.185 33.536 503.785 34.288 503.369 34.992C502.953 35.696 502.521 36.336 502.073 36.912C502.361 37.168 502.713 37.296 503.129 37.296C503.769 37.296 504.393 36.992 505.001 36.384C505.641 35.776 506.233 35.024 506.777 34.128C507.353 33.232 507.849 32.368 508.265 31.536C508.713 30.704 509.049 30.08 509.273 29.664C509.337 29.568 509.401 29.52 509.465 29.52C509.529 29.52 509.593 29.584 509.657 29.712C509.721 29.808 509.721 29.92 509.657 30.048C509.145 31.136 508.505 32.352 507.737 33.696C507.001 35.04 506.169 36.144 505.241 37.008C504.857 37.36 504.489 37.616 504.137 37.776C503.785 37.936 503.465 38.016 503.177 38.016C502.633 38.016 502.153 37.808 501.737 37.392C501.129 38.192 500.505 38.816 499.865 39.264C499.225 39.712 498.601 39.936 497.993 39.936ZM498.569 39.216C498.921 39.216 499.337 39.008 499.817 38.592C500.297 38.144 500.793 37.568 501.305 36.864C501.305 36.864 501.209 36.704 501.017 36.384C500.857 36.064 500.777 35.584 500.777 34.944C500.777 34.688 500.793 34.416 500.825 34.128C500.857 33.808 500.937 33.488 501.065 33.168C501.289 32.528 501.561 32.064 501.881 31.776C502.201 31.456 502.521 31.296 502.841 31.296C503.129 31.296 503.353 31.44 503.513 31.728C503.705 31.984 503.753 32.368 503.657 32.88C504.105 31.888 504.473 30.928 504.761 30C505.049 29.04 505.193 28.208 505.193 27.504C505.193 26.96 505.081 26.528 504.857 26.208C504.665 25.856 504.313 25.68 503.801 25.68C503.353 25.68 502.841 25.968 502.265 26.544C501.689 27.088 501.097 27.824 500.489 28.752C499.913 29.648 499.369 30.624 498.857 31.68C498.377 32.736 497.977 33.776 497.657 34.8C497.369 35.792 497.225 36.656 497.225 37.392C497.225 37.936 497.321 38.384 497.513 38.736C497.737 39.056 498.089 39.216 498.569 39.216ZM509.899 39.936C508.843 39.936 508.107 39.648 507.691 39.072C507.307 38.464 507.115 37.728 507.115 36.864C507.115 35.936 507.275 34.96 507.595 33.936C507.915 32.88 508.219 32.032 508.507 31.392C509.371 29.376 510.459 27.808 511.771 26.688C513.083 25.536 514.283 24.96 515.371 24.96C516.299 24.96 516.923 25.232 517.243 25.776C517.595 26.32 517.771 26.992 517.771 27.792C517.771 28.624 517.627 29.504 517.339 30.432C517.083 31.328 516.795 32.096 516.475 32.736C516.091 33.536 515.691 34.288 515.275 34.992C514.859 35.696 514.427 36.336 513.979 36.912C514.267 37.168 514.619 37.296 515.035 37.296C515.675 37.296 516.299 36.992 516.907 36.384C517.547 35.776 518.139 35.024 518.683 34.128C519.259 33.232 519.755 32.368 520.171 31.536C520.619 30.704 520.955 30.08 521.179 29.664C521.243 29.568 521.307 29.52 521.371 29.52C521.435 29.52 521.499 29.584 521.563 29.712C521.627 29.808 521.627 29.92 521.563 30.048C521.051 31.136 520.411 32.352 519.643 33.696C518.907 35.04 518.075 36.144 517.147 37.008C516.763 37.36 516.395 37.616 516.043 37.776C515.691 37.936 515.371 38.016 515.083 38.016C514.539 38.016 514.059 37.808 513.643 37.392C513.035 38.192 512.411 38.816 511.771 39.264C511.131 39.712 510.507 39.936 509.899 39.936ZM510.475 39.216C510.827 39.216 511.243 39.008 511.723 38.592C512.203 38.144 512.699 37.568 513.211 36.864C513.211 36.864 513.115 36.704 512.923 36.384C512.763 36.064 512.683 35.584 512.683 34.944C512.683 34.688 512.699 34.416 512.731 34.128C512.763 33.808 512.843 33.488 512.971 33.168C513.195 32.528 513.467 32.064 513.787 31.776C514.107 31.456 514.427 31.296 514.747 31.296C515.035 31.296 515.259 31.44 515.419 31.728C515.611 31.984 515.659 32.368 515.563 32.88C516.011 31.888 516.379 30.928 516.667 30C516.955 29.04 517.099 28.208 517.099 27.504C517.099 26.96 516.987 26.528 516.763 26.208C516.571 25.856 516.219 25.68 515.707 25.68C515.259 25.68 514.747 25.968 514.171 26.544C513.595 27.088 513.003 27.824 512.395 28.752C511.819 29.648 511.275 30.624 510.763 31.68C510.283 32.736 509.883 33.776 509.563 34.8C509.275 35.792 509.131 36.656 509.131 37.392C509.131 37.936 509.227 38.384 509.419 38.736C509.643 39.056 509.995 39.216 510.475 39.216ZM521.853 40.128C521.245 40.128 520.701 39.888 520.221 39.408C519.741 38.896 519.501 38 519.501 36.72C519.501 35.856 519.677 34.736 520.029 33.36C520.381 31.984 520.845 30.464 521.421 28.8C522.029 27.136 522.685 25.44 523.389 23.712C524.125 21.952 524.861 20.288 525.597 18.72C526.365 17.12 527.069 15.696 527.709 14.448C528.381 13.2 528.957 12.256 529.437 11.616C530.269 10.496 531.117 9.648 531.981 9.072C532.877 8.464 533.645 8.16 534.285 8.16C535.341 8.16 535.869 8.816 535.869 10.128C535.869 10.832 535.661 11.744 535.245 12.864C534.829 13.952 534.141 15.264 533.181 16.8C532.477 17.92 531.677 19.104 530.781 20.352C529.917 21.568 529.037 22.752 528.141 23.904C527.245 25.056 526.381 26.096 525.549 27.024C524.749 27.92 524.061 28.624 523.485 29.136C523.485 29.136 523.373 29.456 523.149 30.096C522.925 30.704 522.653 31.488 522.333 32.448C522.045 33.376 521.789 34.336 521.565 35.328C521.341 36.32 521.229 37.184 521.229 37.92C521.229 38.4 521.293 38.8 521.421 39.12C521.581 39.408 521.821 39.552 522.141 39.552C522.621 39.552 523.277 39.232 524.109 38.592C524.621 38.208 525.117 37.76 525.597 37.248C526.077 36.704 526.493 36.176 526.845 35.664C527.229 35.152 527.485 34.784 527.613 34.56C527.901 34.112 528.237 33.536 528.621 32.832C529.037 32.128 529.421 31.472 529.773 30.864C530.125 30.224 530.333 29.824 530.397 29.664C530.461 29.6 530.509 29.568 530.541 29.568C530.605 29.568 530.685 29.616 530.781 29.712C530.877 29.776 530.893 29.84 530.829 29.904C530.061 31.504 529.341 32.864 528.669 33.984C528.029 35.104 527.373 36.064 526.701 36.864C526.029 37.632 525.277 38.368 524.445 39.072C524.093 39.392 523.677 39.648 523.197 39.84C522.749 40.032 522.301 40.128 521.853 40.128ZM523.821 28.08C524.589 27.184 525.501 26.064 526.557 24.72C527.613 23.344 528.685 21.904 529.773 20.4C530.861 18.896 531.805 17.488 532.605 16.176C533.405 14.864 533.965 13.712 534.285 12.72C534.637 11.728 534.813 10.928 534.813 10.32C534.813 9.456 534.541 9.024 533.997 9.024C533.645 9.024 533.165 9.312 532.557 9.888C531.981 10.432 531.357 11.312 530.685 12.528C530.205 13.392 529.677 14.432 529.101 15.648C528.525 16.864 527.949 18.144 527.373 19.488C526.797 20.832 526.253 22.112 525.741 23.328C525.229 24.512 524.797 25.536 524.445 26.4C524.125 27.264 523.917 27.824 523.821 28.08ZM532.003 40.176C529.955 40.176 528.547 39.808 527.779 39.072C527.043 38.336 526.675 37.52 526.675 36.624C526.675 35.792 526.883 35.04 527.299 34.368C527.715 33.664 528.131 33.248 528.547 33.12C528.835 32.608 529.139 32.048 529.459 31.44C529.811 30.832 530.131 30.24 530.419 29.664C530.995 28.512 531.587 27.424 532.195 26.4C532.803 25.344 533.459 24.496 534.163 23.856C534.899 23.216 535.667 22.896 536.467 22.896C536.851 22.896 537.251 22.976 537.667 23.136C538.083 23.328 538.291 23.52 538.291 23.712C538.291 23.84 538.227 23.936 538.099 24C537.971 24.064 537.827 24.08 537.667 24.048C537.091 23.888 536.563 24.048 536.083 24.528C535.603 25.008 535.363 25.664 535.363 26.496C535.363 26.624 535.363 26.768 535.363 26.928C535.395 27.056 535.427 27.2 535.459 27.36C535.651 28.128 535.843 29.008 536.035 30C536.259 30.992 536.371 32 536.371 33.024C536.371 33.408 536.355 33.792 536.323 34.176C536.291 34.56 536.211 34.928 536.083 35.28C535.667 36.464 535.091 37.408 534.355 38.112C533.651 38.784 532.787 39.28 531.763 39.6C532.531 39.632 533.331 39.568 534.163 39.408C535.027 39.216 535.763 38.944 536.371 38.592C537.427 37.984 538.355 37.152 539.155 36.096C539.987 35.04 540.723 33.936 541.363 32.784C542.003 31.6 542.579 30.528 543.091 29.568C543.123 29.44 543.219 29.376 543.379 29.376C543.475 29.376 543.555 29.424 543.619 29.52C543.683 29.584 543.683 29.664 543.619 29.76C542.979 30.944 542.323 32.144 541.651 33.36C540.979 34.544 540.227 35.648 539.395 36.672C538.563 37.664 537.571 38.48 536.419 39.12C535.171 39.824 533.699 40.176 532.003 40.176ZM530.035 39.36C530.675 39.36 531.331 39.152 532.003 38.736C532.675 38.32 533.155 37.712 533.443 36.912C533.795 35.92 534.003 34.816 534.067 33.6C534.163 32.352 534.211 31.184 534.211 30.096C534.211 29.008 534.227 28.176 534.259 27.6C534.323 26.704 534.563 25.872 534.979 25.104C535.395 24.304 536.099 23.824 537.091 23.664C536.867 23.536 536.643 23.472 536.419 23.472C535.875 23.472 535.315 23.712 534.739 24.192C534.163 24.672 533.731 25.104 533.443 25.488C532.995 26.096 532.563 26.816 532.147 27.648C531.731 28.48 531.267 29.36 530.755 30.288L529.315 32.88C529.411 32.848 529.555 32.832 529.747 32.832C530.259 32.832 530.579 32.976 530.707 33.264C530.867 33.552 530.915 33.76 530.851 33.888C530.755 33.856 530.659 33.84 530.563 33.84C530.499 33.808 530.435 33.792 530.371 33.792C529.827 33.792 529.347 34.016 528.931 34.464C528.547 34.912 528.275 35.408 528.115 35.952C528.051 36.176 528.003 36.4 527.971 36.624C527.939 36.816 527.923 36.992 527.923 37.152C527.923 37.92 528.131 38.48 528.547 38.832C528.963 39.184 529.459 39.36 530.035 39.36Z" fill="black"/>
</svg>
