      <svg
        width="534"
        height="79"
        viewBox="0 0 534 79"
        className="hello"
        xmlns="http://www.w3.org/2000/svg"
      >
        <path
          d="M18.9 45.15C18.65 45.9 18.325 46.4 17.925 46.65C16.075 47.3 13.975 48.25 11.625 49.5C9.32499 50.75 6.77499 52.325 3.97499 54.225C3.47499 54.525 3.07499 54.525 2.77499 54.225C2.67499 54.125 2.62499 54.05 2.62499 54C2.17499 53.1 3.34999 51.45 6.14999 49.05C2.04999 47.55 0.174988 45.575 0.524988 43.125C0.724988 41.125 2.27499 38.45 5.17499 35.1C6.92499 33.15 8.39999 32.175 9.59999 32.175C12.15 32.175 13.3 33.575 13.05 36.375C13 37.275 12.675 38.225 12.075 39.225C11.525 40.175 10.9 40.3 10.2 39.6C7.94999 37.45 6.32499 37.075 5.32499 38.475C4.27499 40.025 5.17499 41.475 8.02499 42.825C9.77499 43.675 11.775 43.875 14.025 43.425C14.725 43.275 15.5 42.95 16.35 42.45C16.8 42.2 17.225 42 17.625 41.85C18.025 41.65 18.375 41.525 18.675 41.475C19.625 41.325 19.9 41.9 19.5 43.2L18.9 45.15ZM31.0394 4.275C32.0894 1.825 32.7644 1.775 33.0644 4.125L34.7894 22.5C36.6894 39.05 36.4644 49.55 34.1144 54C33.7644 54.6 33.4894 54.75 33.2894 54.45C33.0894 54.2 32.9894 53.775 32.9894 53.175C33.0894 48.975 32.7894 44.25 32.0894 39C32.0894 38.8 31.5644 34.05 30.5144 24.75L28.8644 11.175C28.7644 10.175 28.8644 9.325 29.1644 8.625L31.0394 4.275ZM82.2492 54.525C80.5992 54.525 79.2742 54.25 78.2742 53.7C77.7742 53.45 77.3242 53.1 76.9242 52.65C76.5742 52.2 76.2242 51.7 75.8742 51.15C71.5242 51.7 67.8742 52.55 64.9242 53.7C64.1742 54 63.7992 54.575 63.7992 55.425C63.6492 58.775 63.0992 61.55 62.1492 63.75C61.3492 65.6 60.3742 67.375 59.2242 69.075C58.1242 70.775 56.8492 72.375 55.3992 73.875C52.5992 76.825 50.0242 78.3 47.6742 78.3C45.4242 78.3 42.9492 77.775 40.2492 76.725C38.8992 76.175 37.7742 75.65 36.8742 75.15C35.9742 74.7 35.2742 74.3 34.7742 73.95C34.3742 73.65 34.2492 73.3 34.3992 72.9C34.5492 72.5 34.8992 72.425 35.4492 72.675C37.4992 73.475 39.1742 73.9 40.4742 73.95C41.1742 74 41.9492 74 42.7992 73.95C43.6992 73.9 44.6742 73.8 45.7242 73.65C47.7242 73.35 50.4242 71.85 53.8242 69.15C57.2242 66.45 59.7492 63.2 61.3992 59.4C61.4992 59.25 61.4992 59.1 61.3992 58.95C60.8992 56.9 60.1492 55.25 59.1492 54C58.6492 53.45 59.0992 51.6 60.4992 48.45C60.7992 47.85 61.2742 47.45 61.9242 47.25C64.5742 46.4 67.1492 45.625 69.6492 44.925C72.1492 44.225 74.6242 43.625 77.0742 43.125C77.7242 42.975 78.1242 43.175 78.2742 43.725C78.4242 44.825 78.7742 45.725 79.3242 46.425C79.8742 47.075 80.8492 47.525 82.2492 47.775C82.9492 47.925 83.3992 48.55 83.5992 49.65C83.7992 50.75 83.7492 51.85 83.4492 52.95C83.1492 54 82.7492 54.525 82.2492 54.525ZM103.454 52.575C98.6543 54.125 92.4293 54.8 84.7793 54.6C84.7293 54.75 84.6293 54.975 84.4793 55.275C84.3293 55.575 84.1793 55.975 84.0293 56.475C83.8793 56.975 83.7293 57.4 83.5793 57.75C83.4293 58.1 83.3043 58.4 83.2043 58.65C83.0043 59.15 82.6543 59.325 82.1543 59.175C81.7043 59.025 81.4793 58.6 81.4793 57.9C81.4793 57.1 81.5793 56.375 81.7793 55.725C81.8793 55.325 81.9543 55.025 82.0043 54.825C82.0543 54.625 82.0793 54.525 82.0793 54.525C81.0293 54.075 80.3543 53.3 80.0543 52.2C79.7543 51.05 79.7793 50 80.1293 49.05C80.5293 48.05 81.1793 47.625 82.0793 47.775C82.8293 47.875 83.4543 47.95 83.9543 48C84.4543 48 84.8543 47.975 85.1543 47.925C90.6043 40.825 96.0793 35.525 101.579 32.025C104.079 30.425 106.079 29.7 107.579 29.85C110.029 30.1 112.454 31.2 114.854 33.15C116.104 34.15 116.654 35.4 116.504 36.9C116.354 38.4 115.754 40.35 114.704 42.75C114.204 43.95 113.704 44.925 113.204 45.675C112.754 46.425 112.354 46.975 112.004 47.325C115.054 47.825 117.829 47.975 120.329 47.775C120.979 47.725 121.454 48.15 121.754 49.05C122.254 50.75 122.104 52.275 121.304 53.625C120.854 54.225 120.529 54.525 120.329 54.525C114.929 54.975 109.304 54.325 103.454 52.575ZM111.179 40.875C109.829 39.975 108.229 39.225 106.379 38.625C104.579 38.025 103.104 37.925 101.954 38.325C99.5043 39.125 97.1293 40.35 94.8293 42C92.5793 43.6 90.3793 45.675 88.2293 48.225C90.1793 48.125 92.2543 47.9 94.4543 47.55C96.7043 47.15 99.0543 46.6 101.504 45.9C106.504 44.45 109.754 43.025 111.254 41.625C111.504 41.375 111.479 41.125 111.179 40.875ZM90.9293 14.25C91.0293 14.1 91.2293 14.05 91.5293 14.1C93.5293 14.8 95.3043 15.85 96.8543 17.25C97.0543 17.45 97.0793 17.65 96.9293 17.85L93.4043 23.55C93.2543 23.8 93.0043 23.775 92.6543 23.475C92.4543 23.325 91.9293 22.975 91.0793 22.425C90.2293 21.875 89.0043 21.125 87.4043 20.175C87.1543 20.025 87.1043 19.875 87.2543 19.725L90.9293 14.25ZM132.837 35.775C135.187 36.725 137.737 37.525 140.487 38.175C143.237 38.825 146.137 39.35 149.187 39.75C155.337 40.6 160.162 40.825 163.662 40.425C164.112 40.375 164.412 40.525 164.562 40.875C164.712 41.225 164.687 41.6 164.487 42L162.237 45.975C161.987 46.475 161.562 46.675 160.962 46.575C152.812 46.125 145.337 46.925 138.537 48.975C138.287 49.025 137.487 49.3 136.137 49.8C134.787 50.25 132.887 50.925 130.437 51.825C125.587 53.625 122.212 54.525 120.312 54.525C119.712 54.525 119.212 53.675 118.812 51.975C118.312 49.225 118.837 47.825 120.387 47.775C121.937 47.725 125.162 47.075 130.062 45.825C132.462 45.225 134.287 44.775 135.537 44.475C136.837 44.125 137.537 43.925 137.637 43.875C137.737 43.825 137.812 43.8 137.862 43.8C137.912 43.75 137.962 43.725 138.012 43.725C138.412 43.575 138.437 43.425 138.087 43.275C136.987 42.725 135.762 42.275 134.412 41.925C133.062 41.525 131.587 41.2 129.987 40.95C128.437 40.7 126.912 40.525 125.412 40.425C123.962 40.325 122.587 40.325 121.287 40.425C120.887 40.425 120.712 40.25 120.762 39.9C120.912 39.35 121.137 38.825 121.437 38.325C121.737 37.825 122.087 37.3 122.487 36.75C123.337 35.6 124.187 34.925 125.037 34.725C127.037 34.225 129.637 34.575 132.837 35.775ZM155.712 17.175C155.812 17.025 156.012 16.975 156.312 17.025C158.312 17.725 160.087 18.775 161.637 20.175C161.837 20.375 161.862 20.575 161.712 20.775L158.187 26.475C158.037 26.725 157.787 26.7 157.437 26.4C157.237 26.25 156.712 25.9 155.862 25.35C155.012 24.8 153.787 24.05 152.187 23.1C151.937 22.95 151.887 22.8 152.037 22.65L155.712 17.175ZM137.732 30.375C137.532 27.575 137.232 24.475 136.832 21.075C136.482 17.675 136.007 13.925 135.407 9.825L134.507 6.75C134.457 6.2 134.557 5.7 134.807 5.25C134.907 5.05 135.107 4.7 135.407 4.2C135.757 3.7 136.182 3.025 136.682 2.175C136.832 1.875 137.057 1.725 137.357 1.725C137.607 1.725 137.782 1.925 137.882 2.325C138.432 4.325 139.532 6.2 141.182 7.95C141.682 8.45 141.707 8.95 141.257 9.45L139.682 11.625C139.482 11.925 139.407 12.45 139.457 13.2C140.907 23.95 141.007 30.85 139.757 33.9C138.307 37.55 133.507 39.625 125.357 40.125C121.957 40.325 121.307 39.125 123.407 36.525C123.657 36.225 123.907 35.95 124.157 35.7C124.357 35.4 124.557 35.125 124.757 34.875C125.207 34.325 125.857 34.05 126.707 34.05C130.507 34 133.457 33.7 135.557 33.15C137.057 32.8 137.782 31.875 137.732 30.375ZM174.301 4.275C175.351 1.825 176.026 1.775 176.326 4.125L178.051 22.5C179.951 39.05 179.726 49.55 177.376 54C177.026 54.6 176.751 54.75 176.551 54.45C176.351 54.2 176.251 53.775 176.251 53.175C176.351 48.975 176.051 44.25 175.351 39C175.351 38.8 174.826 34.05 173.776 24.75L172.126 11.175C172.026 10.175 172.126 9.325 172.426 8.625L174.301 4.275ZM248.985 45.825C248.635 51.475 247.285 56.225 244.935 60.075C244.085 61.425 243.01 62.675 241.71 63.825C240.46 65.025 238.96 66.125 237.21 67.125C233.71 69.125 229.685 70.1 225.135 70.05C215.485 70 210.66 65.65 210.66 57C210.66 55.2 211.31 52.475 212.61 48.825C213.16 47.275 213.71 45.875 214.26 44.625C214.81 43.325 215.36 42.15 215.91 41.1C216.06 40.8 216.31 40.65 216.66 40.65C216.91 40.65 217.11 40.775 217.26 41.025C217.41 41.225 217.41 41.525 217.26 41.925C216.16 44.325 215.31 46.35 214.71 48C214.11 49.6 213.81 50.85 213.81 51.75C213.71 58.35 217.785 61.725 226.035 61.875C235.085 62.075 241.46 59.4 245.16 53.85C245.31 53.65 245.435 53.325 245.535 52.875C246.135 48.725 245.31 44.275 243.06 39.525C242.76 39.025 242.735 38.475 242.985 37.875L245.235 33.075C245.485 32.475 245.76 32.375 246.06 32.775C248.31 35.725 249.285 40.075 248.985 45.825ZM228.735 16.875C228.835 16.725 229.035 16.675 229.335 16.725C231.335 17.425 233.11 18.475 234.66 19.875C234.86 20.075 234.885 20.275 234.735 20.475L231.21 26.175C231.06 26.425 230.81 26.4 230.46 26.1C230.26 25.95 229.735 25.6 228.885 25.05C228.035 24.5 226.81 23.75 225.21 22.8C224.96 22.65 224.91 22.5 225.06 22.35L228.735 16.875ZM256.15 29.325C256.7 29.325 257 29.625 257.05 30.225C257.45 33.875 257.075 36.875 255.925 39.225C254.775 41.575 252.775 42.975 249.925 43.425C248.025 43.775 246.325 43.6 244.825 42.9C244.175 42.6 243.975 41.8 244.225 40.5L245.35 34.8C245.45 34.15 245.625 33.8 245.875 33.75C246.125 33.7 246.4 33.9 246.7 34.35C247.35 35.3 248.425 35.85 249.925 36C251.425 36.15 252.725 35.75 253.825 34.8C254.975 33.8 255.5 32.3 255.4 30.3C255.4 29.65 255.65 29.325 256.15 29.325ZM258.1 59.175C258.2 59.025 258.4 58.975 258.7 59.025C259.55 59.375 260.375 59.775 261.175 60.225C261.975 60.675 262.725 61.2 263.425 61.8C263.625 62 263.65 62.2 263.5 62.4L260.275 67.575C260.175 67.725 259.975 67.675 259.675 67.425C259.525 67.275 259.125 67 258.475 66.6C257.875 66.25 257 65.75 255.85 65.1L253.3 69.075C253.15 69.275 252.925 69.25 252.625 69C252.425 68.85 251.925 68.525 251.125 68.025C250.375 67.525 249.3 66.85 247.9 66C247.7 65.9 247.675 65.775 247.825 65.625L251.125 60.675C251.225 60.525 251.4 60.475 251.65 60.525C252.4 60.775 253.1 61.1 253.75 61.5C254.45 61.9 255.1 62.325 255.7 62.775L258.1 59.175ZM259.34 65.625C258.99 65.425 258.79 65.2 258.74 64.95C258.69 64.75 258.765 64.55 258.965 64.35C259.115 64.2 259.365 64.175 259.715 64.275C264.515 65.675 268.79 65.65 272.54 64.2C278.99 61.65 283.665 57.775 286.565 52.575C286.615 52.475 286.64 52.4 286.64 52.35C286.69 52.3 286.715 52.25 286.715 52.2C286.715 50.35 285.44 47.85 282.89 44.7C282.79 44.5 282.765 44.35 282.815 44.25L284.99 36.6C285.19 35.9 285.865 36.475 287.015 38.325C288.415 40.525 289.29 43.2 289.64 46.35C289.84 47.85 289.615 50.2 288.965 53.4C288.315 56.55 286.39 59.95 283.19 63.6C280.04 67.2 277.065 69.15 274.265 69.45C269.215 70 264.24 68.725 259.34 65.625ZM276.74 15.75C276.84 15.6 277.04 15.55 277.34 15.6C279.34 16.3 281.115 17.35 282.665 18.75C282.865 18.95 282.89 19.15 282.74 19.35L279.215 25.05C279.065 25.3 278.815 25.275 278.465 24.975C278.265 24.825 277.74 24.475 276.89 23.925C276.04 23.375 274.815 22.625 273.215 21.675C272.965 21.525 272.915 21.375 273.065 21.225L276.74 15.75ZM299.391 31.35C299.891 31.45 300.166 31.85 300.216 32.55C300.266 32.9 300.341 33.6 300.441 34.65C300.591 35.65 300.766 36.975 300.966 38.625C301.316 41.875 301.866 44.125 302.616 45.375C303.366 46.675 304.541 47.475 306.141 47.775C307.791 48.075 308.416 49.025 308.016 50.625C307.416 53.225 306.816 54.525 306.216 54.525C303.016 54.525 300.891 53.025 299.841 50.025C299.591 49.225 299.341 48.325 299.091 47.325C298.891 46.275 298.741 45.1 298.641 43.8C298.541 42.5 298.441 41.475 298.341 40.725C298.291 39.975 298.266 39.55 298.266 39.45C298.266 39.35 298.241 39.325 298.191 39.375C298.141 39.375 298.066 39.475 297.966 39.675C296.316 43.775 293.191 45.9 288.591 46.05C286.591 46.1 285.391 45.125 284.991 43.125C284.691 41.425 284.841 40.2 285.441 39.45C286.041 38.7 286.641 38.525 287.241 38.925C287.791 39.325 288.216 39.525 288.516 39.525C291.616 39.825 293.891 39.325 295.341 38.025C296.291 37.275 297.316 35.275 298.416 32.025C298.566 31.475 298.891 31.25 299.391 31.35ZM299.091 60.975C299.191 60.825 299.391 60.775 299.691 60.825C300.541 61.175 301.366 61.575 302.166 62.025C302.966 62.475 303.716 63 304.416 63.6C304.616 63.8 304.641 64 304.491 64.2L301.266 69.375C301.166 69.525 300.966 69.475 300.666 69.225C300.516 69.075 300.116 68.8 299.466 68.4C298.866 68.05 297.991 67.55 296.841 66.9L294.291 70.875C294.141 71.075 293.916 71.05 293.616 70.8C293.416 70.65 292.916 70.325 292.116 69.825C291.366 69.325 290.291 68.65 288.891 67.8C288.691 67.7 288.666 67.575 288.816 67.425L292.116 62.475C292.216 62.325 292.391 62.275 292.641 62.325C293.391 62.575 294.091 62.9 294.741 63.3C295.441 63.7 296.091 64.125 296.691 64.575L299.091 60.975ZM322.852 35.775C323.152 35.625 323.377 35.675 323.527 35.925C325.327 38.625 327.727 41.175 330.727 43.575C333.777 46.025 337.177 47.425 340.927 47.775C341.877 47.825 342.352 48.45 342.352 49.65C342.352 52.9 341.877 54.525 340.927 54.525C337.527 54.525 334.002 53.275 330.352 50.775C330.102 53.575 329.802 55.15 329.452 55.5C329.052 55.9 328.577 56.1 328.027 56.1C322.377 55.65 317.702 53.175 314.002 48.675C313.852 48.475 313.677 48.5 313.477 48.75C310.977 52.5 308.527 54.425 306.127 54.525C305.577 54.525 305.202 54.125 305.002 53.325C304.402 51.075 304.427 49.475 305.077 48.525C305.427 48.025 305.777 47.775 306.127 47.775C310.827 47.625 313.702 46.425 314.752 44.175C316.952 39.725 319.652 36.925 322.852 35.775ZM322.552 41.325C322.452 41.175 322.277 41.125 322.027 41.175C320.527 41.525 319.452 42.15 318.802 43.05C318.552 43.4 318.577 43.675 318.877 43.875C319.777 44.625 320.752 45.3 321.802 45.9C322.902 46.45 324.077 46.925 325.327 47.325C325.677 47.425 325.877 47.425 325.927 47.325C326.027 47.225 325.977 47.075 325.777 46.875C325.277 46.175 324.752 45.375 324.202 44.475C323.652 43.525 323.102 42.475 322.552 41.325ZM359.144 47.775C360.044 48.025 360.519 48.3 360.569 48.6C360.669 49 360.669 49.6 360.569 50.4C360.219 53.15 359.744 54.525 359.144 54.525C356.444 54.525 353.744 53 351.044 49.95C348.744 52.7 345.344 54.225 340.844 54.525C340.344 54.525 340.019 54.15 339.869 53.4L339.269 50.25C339.119 49.8 339.219 49.275 339.569 48.675C339.869 48.175 340.294 47.875 340.844 47.775C346.344 47.325 350.044 45.675 351.944 42.825C352.194 42.425 352.544 42.225 352.994 42.225C353.444 42.225 353.669 42.45 353.669 42.9C353.669 43.3 353.719 43.6 353.819 43.8C355.469 46.05 357.244 47.375 359.144 47.775ZM351.569 21.9C351.669 21.75 351.869 21.7 352.169 21.75C353.019 22.1 353.844 22.5 354.644 22.95C355.444 23.4 356.194 23.925 356.894 24.525C357.094 24.725 357.119 24.925 356.969 25.125L353.744 30.3C353.644 30.45 353.444 30.4 353.144 30.15C352.994 30 352.594 29.75 351.944 29.4C351.344 29 350.469 28.475 349.319 27.825L346.769 31.8C346.619 32 346.394 31.975 346.094 31.725C345.894 31.575 345.394 31.25 344.594 30.75C343.844 30.25 342.769 29.575 341.369 28.725C341.169 28.625 341.144 28.5 341.294 28.35L344.594 23.4C344.694 23.25 344.869 23.2 345.119 23.25C345.869 23.5 346.569 23.825 347.219 24.225C347.919 24.625 348.569 25.05 349.169 25.5L351.569 21.9ZM376.629 30.675C380.029 30.775 382.354 34.925 383.604 43.125C383.704 43.675 383.629 44.1 383.379 44.4L379.254 49.575C378.904 50.075 378.429 50.25 377.829 50.1C373.979 49 370.579 47.2 367.629 44.7C365.279 51.25 362.454 54.525 359.154 54.525C358.804 54.525 358.429 54 358.029 52.95C357.229 50.45 357.204 48.85 357.954 48.15C358.254 47.9 358.654 47.775 359.154 47.775C361.454 47.725 363.654 46.325 365.754 43.575C366.454 42.625 368.079 39.875 370.629 35.325C372.379 32.225 374.379 30.675 376.629 30.675ZM371.229 38.025C372.979 39.725 375.229 40.875 377.979 41.475C378.029 39.325 377.304 37.9 375.804 37.2C374.304 36.5 372.779 36.775 371.229 38.025ZM429.404 21.6C430.054 20.7 430.454 20.9 430.604 22.2C430.654 22.7 430.779 23.675 430.979 25.125C431.179 26.575 431.429 28.55 431.729 31.05C432.029 33.5 432.254 35.475 432.404 36.975C432.604 38.425 432.729 39.375 432.779 39.825C433.179 43.875 434.029 46.3 435.329 47.1C436.079 47.65 437.179 47.875 438.629 47.775C439.529 47.775 440.054 48.3 440.204 49.35C440.354 50.45 440.254 51.575 439.904 52.725C439.554 53.825 439.129 54.425 438.629 54.525C435.829 54.725 433.754 54.025 432.404 52.425C431.004 50.725 430.054 47.75 429.554 43.5C428.154 46.15 426.704 47.775 425.204 48.375C424.104 48.775 422.579 48.8 420.629 48.45C418.529 48.05 417.054 47.5 416.204 46.8C415.254 46 414.854 45.125 415.004 44.175C415.154 43.075 415.629 41.725 416.429 40.125C417.279 38.425 417.929 37.35 418.379 36.9C421.029 34.35 424.179 32.1 427.829 30.15C427.679 28.1 427.604 26.575 427.604 25.575C427.604 24.575 427.829 23.775 428.279 23.175L429.404 21.6ZM428.354 34.725C424.454 35.825 421.654 37.5 419.954 39.75C419.754 40.05 419.829 40.3 420.179 40.5C421.179 41 422.354 41.3 423.704 41.4C425.054 41.45 426.579 41.3 428.279 40.95C428.529 40.9 428.804 40.725 429.104 40.425C429.054 39.625 428.954 38.75 428.804 37.8C428.704 36.85 428.554 35.825 428.354 34.725ZM423.104 8.7C423.204 8.55 423.404 8.5 423.704 8.55C424.554 8.9 425.379 9.3 426.179 9.75C426.979 10.2 427.729 10.725 428.429 11.325C428.629 11.525 428.654 11.725 428.504 11.925L425.279 17.1C425.179 17.25 424.979 17.2 424.679 16.95C424.529 16.8 424.129 16.55 423.479 16.2C422.879 15.8 422.004 15.275 420.854 14.625L418.304 18.6C418.154 18.8 417.929 18.775 417.629 18.525C417.429 18.375 416.929 18.05 416.129 17.55C415.379 17.05 414.304 16.375 412.904 15.525C412.704 15.425 412.679 15.3 412.829 15.15L416.129 10.2C416.229 10.05 416.404 10 416.654 10.05C417.404 10.3 418.104 10.625 418.754 11.025C419.454 11.425 420.104 11.85 420.704 12.3L423.104 8.7ZM443.122 38.7L445.222 34.05C445.622 33.15 446.072 33.125 446.572 33.975C447.572 35.825 448.172 37.85 448.372 40.05C448.572 42.2 448.347 44.575 447.697 47.175C446.497 52.075 443.472 54.525 438.622 54.525C438.122 54.525 437.597 53.25 437.047 50.7C436.797 49.4 436.922 48.525 437.422 48.075C437.722 47.825 438.122 47.725 438.622 47.775C441.572 47.925 443.797 47.125 445.297 45.375C445.397 45.275 445.397 45.1 445.297 44.85C444.997 43.45 444.322 42 443.272 40.5C442.872 39.95 442.822 39.35 443.122 38.7ZM449.497 63.525C449.597 63.375 449.797 63.325 450.097 63.375C450.947 63.725 451.772 64.125 452.572 64.575C453.372 65.025 454.122 65.55 454.822 66.15C455.022 66.35 455.047 66.55 454.897 66.75L451.672 71.925C451.572 72.075 451.372 72.025 451.072 71.775C450.922 71.625 450.522 71.35 449.872 70.95C449.272 70.6 448.397 70.1 447.247 69.45L444.697 73.425C444.547 73.625 444.322 73.6 444.022 73.35C443.822 73.2 443.322 72.875 442.522 72.375C441.772 71.875 440.697 71.2 439.297 70.35C439.097 70.25 439.072 70.125 439.222 69.975L442.522 65.025C442.622 64.875 442.797 64.825 443.047 64.875C443.797 65.125 444.497 65.45 445.147 65.85C445.847 66.25 446.497 66.675 447.097 67.125L449.497 63.525ZM486.435 55.35C484.885 64.25 480.16 70.475 472.26 74.025C471.26 74.475 470.285 74.825 469.335 75.075C468.385 75.375 467.485 75.55 466.635 75.6C464.835 75.7 461.635 74.175 457.035 71.025C456.485 70.625 456.31 70.25 456.51 69.9C456.71 69.55 457.06 69.5 457.56 69.75C461.71 71.9 466.935 71.175 473.235 67.575C478.585 64.525 482.235 60.3 484.185 54.9C484.185 54.7 484.11 54.575 483.96 54.525C480.26 54.425 477.585 53.925 475.935 53.025C474.185 52.025 473.535 50.075 473.985 47.175C474.035 46.825 474.11 46.475 474.21 46.125C474.31 45.725 474.435 45.3 474.585 44.85C475.635 41.75 477.185 39.625 479.235 38.475C481.285 37.325 483.01 37.725 484.41 39.675C485.86 41.675 486.685 44.375 486.885 47.775C487.085 47.775 487.26 47.775 487.41 47.775C487.61 47.725 487.81 47.7 488.01 47.7C488.76 47.7 489.21 48.275 489.36 49.425C489.51 50.525 489.435 51.65 489.135 52.8C488.835 53.95 488.46 54.525 488.01 54.525H486.585C486.585 54.675 486.535 54.95 486.435 55.35ZM482.835 46.95C481.835 44.85 480.635 43.825 479.235 43.875C478.385 44.025 477.71 44.425 477.21 45.075C476.96 45.375 477.01 45.725 477.36 46.125C478.16 47.175 479.885 47.65 482.535 47.55C482.835 47.55 482.935 47.35 482.835 46.95ZM492.414 38.7L494.514 34.05C494.914 33.15 495.364 33.125 495.864 33.975C496.864 35.825 497.464 37.85 497.664 40.05C497.864 42.2 497.639 44.575 496.989 47.175C495.789 52.075 492.764 54.525 487.914 54.525C487.414 54.525 486.889 53.25 486.339 50.7C486.089 49.4 486.214 48.525 486.714 48.075C487.014 47.825 487.414 47.725 487.914 47.775C490.864 47.925 493.089 47.125 494.589 45.375C494.689 45.275 494.689 45.1 494.589 44.85C494.289 43.45 493.614 42 492.564 40.5C492.164 39.95 492.114 39.35 492.414 38.7ZM493.089 17.175C493.189 17.025 493.389 16.975 493.689 17.025C495.689 17.725 497.464 18.775 499.014 20.175C499.214 20.375 499.239 20.575 499.089 20.775L495.564 26.475C495.414 26.725 495.164 26.7 494.814 26.4C494.614 26.25 494.089 25.9 493.239 25.35C492.389 24.8 491.164 24.05 489.564 23.1C489.314 22.95 489.264 22.8 489.414 22.65L493.089 17.175ZM507.971 0.524999C508.171 0.174998 508.346 0.0249984 508.496 0.0750007C508.746 0.0750007 508.946 0.6 509.096 1.65C509.996 9.4 510.596 16.025 510.896 21.525C511.146 26.725 511.346 30.9 511.496 34.05C511.696 37.2 511.821 39.325 511.871 40.425C512.221 45.025 514.721 47.475 519.371 47.775C520.721 47.875 521.246 48.775 520.946 50.475C520.496 53.175 519.971 54.525 519.371 54.525C512.821 54.525 509.321 51.475 508.871 45.375C508.671 42.825 508.496 40.275 508.346 37.725C508.246 35.125 508.146 32.525 508.046 29.925C507.896 24.725 507.596 20.525 507.146 17.325C506.696 14.075 506.096 10.4 505.346 6.3C505.196 5.55 505.271 4.925 505.571 4.425L507.971 0.524999ZM523.835 38.7L525.935 34.05C526.335 33.15 526.785 33.125 527.285 33.975C528.285 35.825 528.885 37.85 529.085 40.05C529.285 42.2 529.06 44.575 528.41 47.175C527.21 52.075 524.185 54.525 519.335 54.525C518.835 54.525 518.31 53.25 517.76 50.7C517.51 49.4 517.635 48.525 518.135 48.075C518.435 47.825 518.835 47.725 519.335 47.775C522.285 47.925 524.51 47.125 526.01 45.375C526.11 45.275 526.11 45.1 526.01 44.85C525.71 43.45 525.035 42 523.985 40.5C523.585 39.95 523.535 39.35 523.835 38.7ZM527.585 19.35C527.685 19.2 527.86 19.15 528.11 19.2C529.01 19.5 529.86 19.875 530.66 20.325C531.46 20.775 532.21 21.325 532.91 21.975C533.11 22.175 533.135 22.375 532.985 22.575L529.76 27.75C529.66 27.9 529.46 27.85 529.16 27.6C529.01 27.5 528.635 27.275 528.035 26.925C527.485 26.575 526.735 26.1 525.785 25.5L523.385 29.25C523.285 29.45 523.06 29.425 522.71 29.175C522.56 29.025 522.085 28.7 521.285 28.2C520.485 27.7 519.385 27.025 517.985 26.175C517.785 26.025 517.76 25.9 517.91 25.8L521.21 20.925C521.31 20.775 521.485 20.725 521.735 20.775C522.385 21.025 523.01 21.3 523.61 21.6C524.21 21.85 524.785 22.175 525.335 22.575L527.585 19.35ZM522.935 12.375C523.035 12.175 523.21 12.125 523.46 12.225C524.36 12.525 525.21 12.9 526.01 13.35C526.81 13.8 527.56 14.35 528.26 15C528.46 15.2 528.51 15.4 528.41 15.6L525.11 20.7C525.01 20.9 524.785 20.85 524.435 20.55C524.285 20.45 523.81 20.15 523.01 19.65C522.26 19.15 521.16 18.475 519.71 17.625C519.51 17.475 519.485 17.325 519.635 17.175L522.935 12.375Z"
          fill="white"
        />
      </svg>